<svg width="22" height="22" viewBox="0 0 22 22" fill="none" xmlns="http://www.w3.org/2000/svg">
<path d="M0 11C0 4.92487 4.92487 0 11 0V0C17.0751 0 22 4.92487 22 11V11C22 17.0751 17.0751 22 11 22V22C4.92487 22 0 17.0751 0 11V11Z" fill="white"/>
<path d="M10.9999 11.3327L16.9999 7.66602M10.9999 11.3327L4.99992 7.66602M10.9999 11.3327V17.9993M4.33325 9.47782V12.5209C4.33325 13.1816 4.33325 13.5119 4.42804 13.8087C4.51193 14.0714 4.64923 14.3139 4.83131 14.521C5.03707 14.755 5.32033 14.9249 5.88687 15.2649L9.35353 17.3449C9.95213 17.704 10.2514 17.8836 10.5709 17.9538C10.8536 18.0158 11.1463 18.0158 11.4289 17.9538C11.7484 17.8836 12.0477 17.704 12.6463 17.3449L16.113 15.2649C16.6795 14.9249 16.9628 14.755 17.1685 14.521C17.3506 14.3139 17.4879 14.0714 17.5718 13.8087C17.6666 13.5119 17.6666 13.1816 17.6666 12.5209V9.47783C17.6666 8.81714 17.6666 8.4868 17.5718 8.18997C17.4879 7.92729 17.3506 7.6848 17.1685 7.47773C16.9628 7.24373 16.6795 7.07377 16.113 6.73385L12.6463 4.65385C12.0477 4.29469 11.7484 4.11511 11.4289 4.04494C11.1463 3.98288 10.8536 3.98288 10.5709 4.04494C10.2514 4.11511 9.95213 4.29469 9.35353 4.65385L5.88687 6.73385C5.32033 7.07377 5.03707 7.24373 4.83131 7.47773C4.64923 7.6848 4.51193 7.92729 4.42804 8.18997C4.33325 8.4868 4.33325 8.81714 4.33325 9.47782Z" stroke="#2F384C" stroke-width="1.5" stroke-linecap="round" stroke-linejoin="round"/>
</svg>
