<svg width="16" height="16" viewBox="0 0 16 16" fill="none" xmlns="http://www.w3.org/2000/svg">
<rect width="16" height="16" fill="white"/>
<g clip-path="url(#clip0_53465_553423)">
<path d="M14 8C14 4.68629 11.3137 2 8 2C4.68629 2 2 4.68629 2 8C2 11.3137 4.68629 14 8 14C11.3137 14 14 11.3137 14 8Z" fill="white"/>
<path fill-rule="evenodd" clip-rule="evenodd" d="M6.6025 6.329V5.199C6.6025 5.104 6.6385 5.0325 6.7215 4.985L8.993 3.677C9.3025 3.4985 9.671 3.4155 10.0515 3.4155C11.4785 3.4155 12.3825 4.5215 12.3825 5.6985C12.3825 5.782 12.3825 5.877 12.3705 5.972L10.0155 4.5925C9.95155 4.55179 9.87731 4.53016 9.8015 4.53016C9.72569 4.53016 9.65145 4.55179 9.5875 4.5925L6.6025 6.329ZM11.907 10.729V8.03C11.907 7.8635 11.8355 7.745 11.6925 7.6615L8.7075 5.925L9.6825 5.366C9.71783 5.34275 9.7592 5.33036 9.8015 5.33036C9.8438 5.33036 9.88517 5.34275 9.9205 5.366L12.192 6.6745C12.8465 7.0545 13.2865 7.8635 13.2865 8.6485C13.2865 9.5525 12.7515 10.385 11.9065 10.73L11.907 10.729ZM5.901 8.3515L4.926 7.7805C4.8425 7.733 4.8065 7.6615 4.8065 7.5665V4.9495C4.8065 3.677 5.7815 2.7135 7.102 2.7135C7.602 2.7135 8.0655 2.88 8.458 3.1775L6.115 4.5335C5.9725 4.6165 5.901 4.7355 5.901 4.902V8.351V8.3515ZM8 9.564L6.6025 8.779V7.114L8 6.329L9.3975 7.114V8.779L8 9.564ZM8.898 13.179C8.398 13.179 7.9345 13.013 7.542 12.7155L9.885 11.3595C10.0275 11.2765 10.099 11.1575 10.099 10.991V7.542L11.086 8.113C11.1695 8.1605 11.205 8.232 11.205 8.327V10.9435C11.205 12.216 10.218 13.179 8.898 13.179ZM6.0795 10.5275L3.8075 9.219C3.1535 8.8385 2.7135 8.03 2.7135 7.245C2.71196 6.79896 2.84356 6.36261 3.09145 5.9918C3.33934 5.62098 3.69225 5.33258 4.105 5.1635V7.875C4.105 8.0415 4.1765 8.1605 4.319 8.244L7.2925 9.9685L6.3175 10.5275C6.28219 10.5508 6.24081 10.5632 6.1985 10.5632C6.15619 10.5632 6.11481 10.5508 6.0795 10.5275ZM5.9485 12.4775C4.6045 12.4775 3.6175 11.467 3.6175 10.218C3.6175 10.123 3.6295 10.028 3.641 9.933L5.984 11.288C6.127 11.3715 6.2695 11.3715 6.412 11.288L9.397 9.564V10.694C9.397 10.789 9.362 10.8605 9.2785 10.908L7.007 12.216C6.6975 12.3945 6.329 12.4775 5.9485 12.4775ZM8.898 13.8925C9.58328 13.8926 10.2475 13.6559 10.7784 13.2226C11.3093 12.7893 11.6743 12.1859 11.8115 11.5145C13.1435 11.1695 14 9.92 14 8.648C14 7.8155 13.6435 7.007 13.001 6.424C13.0605 6.174 13.096 5.9245 13.096 5.675C13.096 3.9745 11.7165 2.7015 10.123 2.7015C9.802 2.7015 9.493 2.749 9.183 2.8565C8.628 2.3102 7.88125 2.00278 7.1025 2C6.41715 1.99997 5.75283 2.23668 5.22193 2.6701C4.69103 3.10351 4.32614 3.70701 4.189 4.3785C2.8565 4.7235 2 5.9725 2 7.245C2 8.078 2.3565 8.8865 2.999 9.469C2.9395 9.719 2.904 9.969 2.904 10.2185C2.904 11.919 4.2835 13.1915 5.877 13.1915C6.198 13.1915 6.507 13.144 6.817 13.037C7.37206 13.5835 8.11905 13.891 8.898 13.8935V13.8925Z" fill="#101828"/>
</g>
<defs>
<clipPath id="clip0_53465_553423">
<rect width="12" height="12" fill="white" transform="translate(2 2)"/>
</clipPath>
</defs>
</svg>
