<svg width="16" height="16" viewBox="0 0 16 16" fill="none" xmlns="http://www.w3.org/2000/svg">
<rect width="16" height="16" fill="white"/>
<path d="M14.3538 7.77829H15.2804V8.98925C15.1579 9.02972 15.0306 9.0622 14.8985 9.0867C14.7665 9.11013 14.6168 9.12185 14.4496 9.12185C14.2174 9.12185 14.0204 9.07605 13.8585 8.98445C13.6966 8.89286 13.5736 8.7576 13.4895 8.57867C13.4054 8.39975 13.3633 8.17981 13.3633 7.91888C13.3633 7.67392 13.4101 7.46197 13.5039 7.28305C13.5987 7.10412 13.7366 6.96566 13.9176 6.86768C14.0998 6.7697 14.3218 6.7207 14.5838 6.7207C14.7074 6.7207 14.8293 6.73402 14.9497 6.76064C15.07 6.78727 15.1792 6.82188 15.2772 6.86448L15.1126 7.26068C15.0413 7.22447 14.9598 7.19412 14.8682 7.16962C14.7766 7.14512 14.6807 7.13288 14.5806 7.13288C14.4368 7.13288 14.3117 7.16589 14.2052 7.23192C14.0998 7.29796 14.0178 7.39062 13.9592 7.5099C13.9017 7.62812 13.8729 7.76764 13.8729 7.92846C13.8729 8.08076 13.8937 8.21603 13.9352 8.33425C13.9767 8.4514 14.0422 8.54353 14.1317 8.61062C14.2212 8.67666 14.3378 8.70967 14.4816 8.70967C14.5519 8.70967 14.611 8.70648 14.6589 8.70009C14.7079 8.69263 14.7537 8.68518 14.7963 8.67772V8.19046H14.3538V7.77829Z" fill="#1C8B7F"/>
<path d="M13.0459 8.44128C13.0459 8.57974 13.0124 8.70009 12.9453 8.80233C12.8782 8.90458 12.7802 8.98339 12.6513 9.03877C12.5235 9.09415 12.368 9.12185 12.1848 9.12185C12.1039 9.12185 12.0245 9.11652 11.9468 9.10587C11.8701 9.09522 11.7961 9.07978 11.7247 9.05954C11.6544 9.03824 11.5873 9.01215 11.5234 8.98126V8.52116C11.6342 8.57015 11.7492 8.61435 11.8685 8.65376C11.9878 8.69316 12.106 8.71287 12.2232 8.71287C12.3041 8.71287 12.3691 8.70222 12.4181 8.68092C12.4681 8.65962 12.5043 8.63033 12.5267 8.59305C12.5491 8.55577 12.5603 8.51317 12.5603 8.46525C12.5603 8.40667 12.5406 8.35661 12.5011 8.31507C12.4617 8.27354 12.4074 8.23466 12.3382 8.19845C12.27 8.16224 12.1928 8.12337 12.1065 8.08183C12.0522 8.05627 11.9931 8.02538 11.9292 7.98917C11.8653 7.95189 11.8046 7.90663 11.7471 7.85338C11.6896 7.80013 11.6422 7.73569 11.6049 7.66007C11.5687 7.58339 11.5506 7.4918 11.5506 7.38529C11.5506 7.24577 11.5825 7.12648 11.6465 7.02744C11.7104 6.92839 11.8014 6.85277 11.9196 6.80058C12.0389 6.74733 12.1795 6.7207 12.3414 6.7207C12.4628 6.7207 12.5784 6.73508 12.6881 6.76384C12.7988 6.79153 12.9144 6.832 13.0347 6.88525L12.875 7.27027C12.7674 7.2266 12.671 7.19305 12.5858 7.16962C12.5006 7.14512 12.4138 7.13288 12.3254 7.13288C12.2636 7.13288 12.2109 7.14299 12.1673 7.16323C12.1236 7.1824 12.0906 7.21009 12.0682 7.2463C12.0458 7.28145 12.0347 7.32245 12.0347 7.36932C12.0347 7.4247 12.0506 7.47156 12.0826 7.5099C12.1156 7.54718 12.1646 7.58339 12.2296 7.61854C12.2956 7.65368 12.3776 7.69469 12.4756 7.74155C12.5949 7.798 12.6966 7.85711 12.7807 7.91888C12.8659 7.97959 12.9314 8.05148 12.9772 8.13455C13.023 8.21656 13.0459 8.3188 13.0459 8.44128Z" fill="#1C8B7F"/>
<path d="M10.5725 7.13288C10.4777 7.13288 10.3936 7.15151 10.3201 7.18879C10.2477 7.225 10.1864 7.27772 10.1364 7.34695C10.0874 7.41618 10.0501 7.49978 10.0245 7.59777C9.99897 7.69575 9.98619 7.80598 9.98619 7.92846C9.98619 8.09355 10.0064 8.23466 10.0469 8.35182C10.0884 8.46791 10.1523 8.55684 10.2386 8.61861C10.3249 8.67932 10.4362 8.70967 10.5725 8.70967C10.6673 8.70967 10.7621 8.69902 10.8569 8.67772C10.9527 8.65642 11.0566 8.62607 11.1684 8.58666V9.00203C11.0651 9.04463 10.9634 9.07498 10.8633 9.09309C10.7631 9.11226 10.6508 9.12185 10.5262 9.12185C10.2855 9.12185 10.0874 9.07232 9.93187 8.97327C9.77744 8.87316 9.66295 8.73364 9.58839 8.55471C9.51384 8.37472 9.47656 8.1649 9.47656 7.92527C9.47656 7.74847 9.50053 7.58658 9.54845 7.43961C9.59638 7.29263 9.66667 7.16536 9.75933 7.05779C9.85199 6.95022 9.96648 6.86715 10.1028 6.80857C10.2391 6.74999 10.3957 6.7207 10.5725 6.7207C10.6886 6.7207 10.8047 6.73561 10.9208 6.76543C11.0379 6.79419 11.1497 6.83413 11.2563 6.88525L11.0965 7.28784C11.0092 7.2463 10.9213 7.21009 10.8329 7.1792C10.7445 7.14832 10.6577 7.13288 10.5725 7.13288Z" fill="#1C8B7F"/>
<path d="M8.40508 7.26953C8.59572 7.26953 8.74909 7.32172 8.86518 7.42609C8.98127 7.5294 9.03931 7.69555 9.03931 7.92453V9.08916H8.55206V8.04595C8.55206 7.91814 8.52862 7.82176 8.48176 7.75679C8.43597 7.69182 8.36354 7.65934 8.26449 7.65934C8.11539 7.65934 8.01368 7.70993 7.95936 7.81111C7.90504 7.91229 7.87788 8.0582 7.87788 8.24884V9.08916H7.39062V7.30308H7.76286L7.82836 7.53153H7.85552C7.89386 7.46976 7.94125 7.4197 7.9977 7.38136C8.05521 7.34302 8.11858 7.3148 8.18781 7.29669C8.2581 7.27858 8.33053 7.26953 8.40508 7.26953Z" fill="#1C8B7F"/>
<path d="M6.19668 7.26953C6.36176 7.26953 6.50394 7.30148 6.62323 7.36539C6.74251 7.42822 6.83464 7.51982 6.8996 7.64017C6.96457 7.76052 6.99706 7.90749 6.99706 8.08109V8.31753H5.84521C5.85054 8.45493 5.89154 8.56303 5.96822 8.64184C6.04597 8.71959 6.15354 8.75846 6.29093 8.75846C6.40489 8.75846 6.50927 8.74675 6.60405 8.72332C6.69884 8.69989 6.7963 8.66474 6.89641 8.61788V8.9949C6.80801 9.03857 6.71535 9.07052 6.61843 9.09076C6.52258 9.11099 6.40596 9.12111 6.26857 9.12111C6.08964 9.12111 5.93095 9.08809 5.79249 9.02206C5.6551 8.95603 5.547 8.85538 5.46818 8.72012C5.39044 8.58486 5.35156 8.41445 5.35156 8.2089C5.35156 8.00015 5.38671 7.82655 5.457 7.68809C5.52836 7.54857 5.62741 7.4442 5.75415 7.37497C5.88089 7.30468 6.0284 7.26953 6.19668 7.26953ZM6.19987 7.6162C6.10508 7.6162 6.02627 7.64656 5.96343 7.70726C5.90166 7.76797 5.86598 7.86329 5.85639 7.99323H6.54015C6.53909 7.92081 6.52577 7.85637 6.50021 7.79992C6.47572 7.74348 6.43844 7.69874 6.38838 7.66573C6.33939 7.63271 6.27655 7.6162 6.19987 7.6162Z" fill="#1C8B7F"/>
<path d="M4.38041 7.26953C4.5817 7.26953 4.74412 7.34781 4.86766 7.50437C4.99227 7.66093 5.05458 7.89045 5.05458 8.19292C5.05458 8.39528 5.02529 8.56569 4.96671 8.70415C4.90813 8.84154 4.82719 8.94538 4.72388 9.01567C4.62057 9.08596 4.50182 9.12111 4.36762 9.12111C4.28136 9.12111 4.20734 9.11046 4.14556 9.08916C4.08379 9.06679 4.03107 9.03857 3.9874 9.00449C3.94374 8.96934 3.90593 8.93207 3.87398 8.89266H3.84842C3.85694 8.93526 3.86333 8.97893 3.86759 9.02366C3.87185 9.06839 3.87398 9.11206 3.87398 9.15466V9.87516H3.38672V7.30308H3.78292L3.85161 7.53473H3.87398C3.90593 7.4868 3.9448 7.4426 3.9906 7.40213C4.0364 7.36166 4.09125 7.32971 4.15515 7.30628C4.22012 7.28178 4.2952 7.26953 4.38041 7.26953ZM4.22384 7.65934C4.13864 7.65934 4.07101 7.67691 4.02095 7.71206C3.9709 7.7472 3.93415 7.79992 3.91072 7.87022C3.88835 7.94051 3.87611 8.02944 3.87398 8.13701V8.18973C3.87398 8.30475 3.88463 8.40221 3.90593 8.48208C3.92829 8.56196 3.96504 8.62267 4.01616 8.66421C4.06835 8.70574 4.13971 8.72651 4.23023 8.72651C4.30479 8.72651 4.36603 8.70574 4.41395 8.66421C4.46188 8.62267 4.49756 8.56196 4.52099 8.48208C4.54549 8.40114 4.55773 8.30262 4.55773 8.18653C4.55773 8.01187 4.53058 7.88033 4.47626 7.79194C4.42194 7.70354 4.3378 7.65934 4.22384 7.65934Z" fill="#1C8B7F"/>
<path d="M2.94256 7.91817C2.94256 8.09816 2.9202 8.26218 2.87546 8.41022C2.83073 8.55719 2.76257 8.68393 2.67098 8.79044C2.58045 8.89694 2.46542 8.97895 2.3259 9.03646C2.18638 9.09291 2.0213 9.12113 1.83066 9.12113C1.64001 9.12113 1.47493 9.09291 1.33541 9.03646C1.19589 8.97895 1.08033 8.89694 0.988739 8.79044C0.89821 8.68393 0.83058 8.55666 0.785848 8.40862C0.741116 8.26058 0.71875 8.09603 0.71875 7.91497C0.71875 7.67321 0.758157 7.46286 0.83697 7.28393C0.916848 7.10394 1.03933 6.96442 1.20441 6.86537C1.36949 6.76632 1.57931 6.7168 1.83385 6.7168C2.08733 6.7168 2.29555 6.76632 2.4585 6.86537C2.62252 6.96442 2.74393 7.10394 2.82274 7.28393C2.90262 7.46393 2.94256 7.67534 2.94256 7.91817ZM1.23796 7.91817C1.23796 8.08112 1.25819 8.2217 1.29867 8.33992C1.3402 8.45708 1.40464 8.54761 1.49197 8.61151C1.57931 8.67435 1.6922 8.70577 1.83066 8.70577C1.97124 8.70577 2.0852 8.67435 2.17254 8.61151C2.25987 8.54761 2.32324 8.45708 2.36265 8.33992C2.40312 8.2217 2.42335 8.08112 2.42335 7.91817C2.42335 7.67321 2.37756 7.48043 2.28596 7.33985C2.19437 7.19926 2.04366 7.12897 1.83385 7.12897C1.69433 7.12897 1.58037 7.16092 1.49197 7.22482C1.40464 7.28766 1.3402 7.37819 1.29867 7.49641C1.25819 7.61356 1.23796 7.75415 1.23796 7.91817Z" fill="#1C8B7F"/>
<path d="M3.15658 10.0549C3.22762 10.0549 3.29363 10.0519 3.35898 10.0567C3.3777 10.0582 3.40143 10.0789 3.41129 10.0972C3.45642 10.1804 3.49503 10.2671 3.54032 10.3504C3.58929 10.4404 3.64311 10.5279 3.69475 10.6164C3.72517 10.6686 3.75275 10.7227 3.78651 10.7727C3.85403 10.8726 3.92004 10.9741 3.99559 11.0679C4.12194 11.2246 4.24612 11.3849 4.38802 11.5268C4.55064 11.6894 4.72846 11.8377 4.90562 11.9851C5.16669 12.2025 5.45633 12.3778 5.76017 12.5284C5.9248 12.6102 6.09277 12.6865 6.26458 12.7514C6.41065 12.8065 6.56425 12.8425 6.71483 12.8858C6.81294 12.9138 6.91088 12.9426 7.01016 12.9658C7.07383 12.9807 7.13985 12.9849 7.20453 12.9959C7.27155 13.0073 7.33824 13.021 7.40492 13.0338C7.41528 13.0358 7.42531 13.0409 7.43568 13.0415C7.52559 13.048 7.61551 13.0577 7.70559 13.0589C7.90064 13.0616 8.09585 13.0617 8.29089 13.0589C8.40237 13.0574 8.51401 13.0522 8.62482 13.0409C8.70254 13.0328 8.77875 13.0103 8.85597 12.9962C8.9387 12.9812 9.02276 12.9727 9.10466 12.9544C9.30889 12.909 9.50879 12.8495 9.707 12.7805C9.87865 12.7206 10.048 12.6566 10.2109 12.5777C10.3648 12.503 10.5151 12.4196 10.6628 12.3334C10.779 12.2655 10.8911 12.19 11.0014 12.1128C11.0837 12.0553 11.1634 11.9929 11.2389 11.9269C11.3782 11.8051 11.5182 11.6836 11.6492 11.5534C11.8112 11.3928 11.9569 11.2178 12.0952 11.0353C12.1993 10.8981 12.29 10.7531 12.3836 10.6097C12.4348 10.5312 12.4759 10.446 12.52 10.3631C12.573 10.2633 12.6245 10.1627 12.6796 10.0567C12.7573 10.0542 12.8384 10.0462 12.931 10.0641C12.9104 10.1109 12.8954 10.1493 12.877 10.1859C12.823 10.2944 12.7705 10.4037 12.712 10.5098C12.6457 10.63 12.5775 10.7496 12.503 10.8646C12.4299 10.9773 12.3502 11.0861 12.2688 11.193C12.1857 11.3022 12.1018 11.4113 12.0098 11.5128C11.903 11.6303 11.7896 11.7424 11.674 11.8514C11.5545 11.964 11.432 12.074 11.3045 12.1774C11.2042 12.2588 11.0937 12.3277 10.9887 12.4034C10.7954 12.5428 10.5846 12.6534 10.3737 12.7617C10.2203 12.8405 10.0563 12.8998 9.89453 12.9608C9.7431 13.018 9.58901 13.0683 9.43458 13.1167C9.36254 13.1393 9.28667 13.15 9.21263 13.1665C9.11602 13.1883 9.02026 13.2138 8.92299 13.2316C8.85563 13.2439 8.78527 13.2407 8.71808 13.2539C8.57786 13.2817 8.43312 13.2645 8.29373 13.2991C8.27602 13.3034 8.25646 13.3004 8.23774 13.3004C8.10939 13.3004 7.98103 13.3034 7.85284 13.2996C7.73651 13.2961 7.61902 13.2939 7.5047 13.2748C7.39239 13.2561 7.28007 13.2456 7.16726 13.2341C7.08236 13.2254 6.99929 13.198 6.91539 13.1791C6.88197 13.1716 6.84787 13.1662 6.81478 13.1575C6.7038 13.1281 6.59166 13.1024 6.48285 13.0664C6.3316 13.0165 6.18235 12.9603 6.03343 12.9038C5.92313 12.8619 5.81249 12.8192 5.70585 12.7689C5.60591 12.7216 5.51048 12.6651 5.41438 12.6102C5.22368 12.501 5.03749 12.3845 4.86334 12.2498C4.76273 12.1721 4.66178 12.0947 4.56217 12.0157C4.52707 11.9878 4.49515 11.9558 4.46289 11.9246C4.3713 11.8362 4.27537 11.7518 4.19013 11.6577C4.02851 11.4792 3.86188 11.3045 3.72918 11.1016C3.64411 10.9716 3.54918 10.8479 3.46929 10.715C3.38673 10.5777 3.31553 10.4331 3.24216 10.2904C3.21124 10.23 3.18667 10.1663 3.1606 10.1037C3.15592 10.0926 3.15809 10.0788 3.15625 10.0547L3.15658 10.0549Z" fill="#1C8B7F"/>
<path d="M3.26562 5.68051C3.26964 5.59276 3.31526 5.53861 3.34685 5.47962C3.44997 5.28641 3.56245 5.09822 3.69181 4.92206C3.87365 4.67454 4.06586 4.4347 4.29115 4.22395C4.40547 4.11699 4.51494 4.004 4.63644 3.90573C4.82764 3.75113 5.02553 3.60439 5.23595 3.4757C5.434 3.35453 5.63673 3.24138 5.84966 3.14996C6.03969 3.0684 6.23657 3.00271 6.43095 2.93152C6.50682 2.9036 6.58337 2.87619 6.66125 2.8548C6.73212 2.83541 6.80516 2.82422 6.87736 2.81001C6.98248 2.78929 7.08744 2.76672 7.19324 2.74968C7.2768 2.7363 7.36288 2.73681 7.44544 2.71976C7.58249 2.69151 7.72154 2.70956 7.85759 2.69252C7.93647 2.68266 8.01653 2.66293 8.09291 2.67647C8.23029 2.70071 8.36818 2.68867 8.50506 2.70071C8.63826 2.7124 8.76963 2.74683 8.903 2.75753C9.0693 2.7709 9.2254 2.82856 9.38886 2.85363C9.48863 2.86901 9.58607 2.90611 9.6815 2.94188C9.86769 3.01191 10.0537 3.08294 10.2362 3.16232C10.5745 3.3094 10.889 3.4991 11.1854 3.71754C11.3598 3.84606 11.5246 3.98696 11.6822 4.13654C11.887 4.33108 12.0745 4.53983 12.2495 4.76145C12.3777 4.92373 12.4893 5.09621 12.5968 5.2717C12.6628 5.3795 12.721 5.49215 12.7805 5.60396C12.7903 5.62251 12.7887 5.64725 12.794 5.67934C12.7168 5.67934 12.6506 5.68151 12.5846 5.67834C12.5542 5.67683 12.536 5.65544 12.5213 5.62569C12.4277 5.4365 12.3187 5.25633 12.1925 5.08669C12.1151 4.98256 12.0458 4.87176 11.9614 4.77382C11.84 4.63292 11.7108 4.49855 11.5803 4.36585C11.4909 4.27493 11.3963 4.18852 11.2988 4.10629C11.1919 4.01604 11.0807 3.9303 10.9676 3.8479C10.8803 3.78439 10.7903 3.72389 10.6962 3.67124C10.5168 3.57046 10.336 3.47236 10.1521 3.38027C9.93371 3.27096 9.70273 3.1909 9.46908 3.12138C9.33621 3.08193 9.19916 3.05653 9.06362 3.02611C8.95932 3.00271 8.8552 2.97647 8.74957 2.96043C8.66049 2.94689 8.56857 2.95224 8.47949 2.93853C8.26021 2.90477 8.03993 2.91196 7.81998 2.91664C7.68878 2.91948 7.55809 2.94071 7.42722 2.95391C7.34834 2.96193 7.26945 2.96945 7.1909 2.97982C7.14711 2.9855 7.10365 2.99519 7.06053 3.00555C6.90811 3.04249 6.75435 3.07542 6.60393 3.11937C6.46621 3.15948 6.33117 3.20996 6.19629 3.25943C5.95612 3.34734 5.72765 3.46082 5.5062 3.58818C5.23762 3.74261 4.98241 3.91643 4.74926 4.121C4.62592 4.2293 4.5009 4.33676 4.38742 4.45509C4.21678 4.63309 4.0585 4.82212 3.91326 5.02234C3.77153 5.21789 3.64619 5.42296 3.53153 5.63488C3.51499 5.66547 3.49476 5.68335 3.45632 5.68134C3.39565 5.67817 3.33465 5.68051 3.26579 5.68051H3.26562Z" fill="#1C8B7F"/>
<path d="M2.39503 10.0586H2.5513C2.5869 10.1395 2.61966 10.2162 2.65426 10.2923C2.71309 10.4213 2.76724 10.553 2.83426 10.6777C2.92267 10.8418 3.01911 11.0019 3.11704 11.1609C3.23788 11.3569 3.37961 11.5383 3.52568 11.7163C3.71087 11.942 3.91176 12.151 4.13087 12.3448C4.29215 12.4876 4.45728 12.6251 4.6326 12.7491C4.84553 12.8999 5.0618 13.0466 5.29996 13.1574C5.47378 13.2383 5.64425 13.3269 5.81974 13.404C6.00208 13.4842 6.19028 13.551 6.38315 13.6012C6.52454 13.6379 6.66293 13.6844 6.80917 13.7065C6.93234 13.725 7.05485 13.7543 7.17836 13.7763C7.32276 13.8021 7.46951 13.7976 7.61257 13.8179C7.85475 13.8525 8.09609 13.829 8.33759 13.8357C8.39442 13.8372 8.45158 13.8204 8.50874 13.8143C8.56656 13.8081 8.62473 13.8046 8.68272 13.8001C8.6986 13.7989 8.71481 13.7997 8.73052 13.7972C8.82127 13.7828 8.91186 13.7681 9.00228 13.7529C9.04857 13.7451 9.09454 13.7344 9.141 13.7275C9.3566 13.6961 9.56602 13.6386 9.77293 13.5728C10.0502 13.4845 10.3236 13.3861 10.582 13.2502C10.7125 13.1815 10.8464 13.1183 10.9738 13.0443C11.1043 12.9686 11.2297 12.884 11.3557 12.8008C11.6002 12.6395 11.822 12.4493 12.0366 12.2511C12.1355 12.1597 12.2239 12.0567 12.3172 11.9591C12.3356 11.9399 12.3555 11.9222 12.3737 11.9028C12.5879 11.6738 12.7768 11.4249 12.9463 11.1614C13.0688 10.9708 13.1828 10.7755 13.2772 10.5691C13.3263 10.4619 13.3788 10.3561 13.4284 10.2493C13.4472 10.209 13.4672 10.1683 13.4784 10.1255C13.4946 10.064 13.5334 10.0474 13.5904 10.0541C13.6113 10.0566 13.6325 10.0576 13.6644 10.0601C13.6591 10.0969 13.6614 10.1328 13.6486 10.1621C13.5692 10.3411 13.4876 10.5189 13.4045 10.6962C13.3242 10.8679 13.224 11.0285 13.1261 11.1906C13.0125 11.3785 12.8826 11.5546 12.7482 11.7266C12.5569 11.9716 12.3438 12.1989 12.1111 12.4058C11.9413 12.5568 11.7688 12.706 11.5866 12.8412C11.4173 12.9669 11.2382 13.0816 11.0548 13.186C10.8471 13.3043 10.634 13.4158 10.4152 13.5118C10.2312 13.5925 10.0433 13.6684 9.84713 13.7192C9.75621 13.7427 9.66763 13.7752 9.57738 13.8011C9.50702 13.8213 9.43599 13.8397 9.36429 13.855C9.26217 13.8769 9.15972 13.8975 9.0566 13.9147C8.98122 13.9272 8.90467 13.9323 8.82896 13.9431C8.73336 13.957 8.6381 13.9739 8.54266 13.9884C8.52428 13.9913 8.50539 13.9896 8.48667 13.9901C8.34277 13.9938 8.19871 14.0008 8.0548 14.0004C7.88149 14.0001 7.70817 13.9936 7.53486 13.9898C7.44745 13.9428 7.34884 13.9791 7.25558 13.9476C7.15981 13.9154 7.05251 13.9187 6.95073 13.9028C6.85797 13.8885 6.76538 13.8718 6.67379 13.8514C6.6051 13.836 6.53825 13.8124 6.47022 13.7939C6.4022 13.7753 6.332 13.7636 6.26599 13.7397C6.09117 13.6767 5.91467 13.6197 5.74219 13.5489C5.55918 13.4735 5.38002 13.3914 5.20603 13.2987C5.01985 13.1994 4.83918 13.0904 4.66369 12.9721C4.34146 12.7546 4.04196 12.5111 3.77254 12.2312C3.64552 12.0992 3.51348 11.971 3.39783 11.8292C3.25593 11.6552 3.12356 11.4731 2.99754 11.2872C2.89593 11.1371 2.80601 10.9785 2.7181 10.8198C2.60478 10.6152 2.51019 10.4013 2.42445 10.1838C2.41041 10.1482 2.40623 10.1088 2.39453 10.0586H2.39503Z" fill="#1C8B7F"/>
<path d="M13.5588 5.67297C13.5404 5.67581 13.525 5.67948 13.5097 5.68015C13.4074 5.68416 13.4105 5.68266 13.3704 5.58923C13.3303 5.49547 13.2849 5.40388 13.2381 5.31313C13.1888 5.21736 13.1391 5.12126 13.0823 5.02984C13.0004 4.89831 12.9127 4.77028 12.8254 4.64226C12.7659 4.55502 12.7069 4.46677 12.6399 4.38521C12.5306 4.25217 12.4188 4.12097 12.3011 3.99546C12.1905 3.8773 12.0758 3.76197 11.9547 3.65467C11.8179 3.5335 11.6742 3.41969 11.5293 3.30838C11.4141 3.22013 11.2955 3.13556 11.1726 3.05835C11.0503 2.98113 10.9184 2.91913 10.7954 2.84291C10.6333 2.74247 10.4586 2.66876 10.2843 2.59522C10.1349 2.53221 9.98082 2.4794 9.82722 2.42709C9.67129 2.37394 9.51285 2.32881 9.35073 2.29706C9.25379 2.27817 9.15936 2.24658 9.06243 2.22887C8.95847 2.20982 8.85318 2.19344 8.74788 2.18826C8.61602 2.18174 8.48649 2.14396 8.35328 2.16068C8.17161 2.11722 7.98676 2.13761 7.80442 2.1448C7.70213 2.14881 7.59651 2.14647 7.4964 2.16502C7.3789 2.18692 7.26007 2.18575 7.14358 2.20631C7.04581 2.22369 6.94987 2.2506 6.85294 2.27182C6.7814 2.28736 6.70837 2.29706 6.6375 2.31494C6.46803 2.35773 6.29806 2.39851 6.1356 2.46586C6.04368 2.50397 5.94557 2.5267 5.85348 2.56464C5.71994 2.61962 5.58824 2.67929 5.45805 2.74213C5.20585 2.8638 4.962 3.00236 4.73353 3.16347C4.53247 3.3052 4.34043 3.46063 4.15174 3.61874C4.02606 3.72403 3.9104 3.84203 3.79592 3.95969C3.71302 4.0451 3.63781 4.13819 3.56193 4.23011C3.4655 4.34677 3.36772 4.46259 3.27831 4.58443C3.20209 4.68822 3.13541 4.7992 3.06672 4.90834C3.01624 4.98839 2.9651 5.06861 2.92115 5.15235C2.83942 5.30812 2.7617 5.46606 2.68515 5.6245C2.67279 5.65007 2.6646 5.67614 2.63401 5.67765C2.59708 5.67965 2.55663 5.684 2.52387 5.67129C2.49362 5.6596 2.49646 5.61915 2.50866 5.59258C2.55997 5.4806 2.61095 5.36828 2.66844 5.25948C2.77607 5.05625 2.88805 4.85519 3.01825 4.66566C3.11819 4.52009 3.22599 4.37986 3.33296 4.2393C3.49541 4.02588 3.68009 3.83184 3.87664 3.6505C4.04996 3.49055 4.23013 3.33712 4.41564 3.19138C4.64278 3.01289 4.88545 2.85561 5.14183 2.72157C5.29509 2.64135 5.44902 2.56163 5.60696 2.4911C5.78145 2.41322 5.95911 2.34235 6.14246 2.2867C6.20998 2.26614 6.27499 2.23739 6.34268 2.21717C6.40803 2.19778 6.47555 2.18541 6.54157 2.16853C6.62731 2.14664 6.71254 2.12291 6.79812 2.10101C6.81332 2.09717 6.83004 2.09934 6.84558 2.0965C6.95622 2.07661 7.06686 2.05622 7.17751 2.036C7.18536 2.03449 7.19322 2.03349 7.20107 2.03282C7.30637 2.0248 7.41149 2.0121 7.51695 2.01009C7.82397 2.00424 8.131 2.00174 8.43819 2.00006C8.52075 1.99956 8.60381 2.0019 8.68588 2.01093C8.76593 2.01979 8.84465 2.04051 8.92437 2.05321C9.02566 2.06926 9.12761 2.08162 9.22906 2.09717C9.27535 2.10435 9.32148 2.11388 9.36711 2.12491C9.47909 2.15232 9.59107 2.18007 9.70238 2.20998C9.75268 2.22352 9.80199 2.2414 9.85096 2.25929C10.0084 2.31678 10.1677 2.36993 10.3221 2.43461C10.5039 2.51082 10.6861 2.58854 10.8594 2.68163C11.0876 2.80414 11.3075 2.94135 11.5191 3.09194C11.7792 3.27712 12.0215 3.48286 12.251 3.70381C12.3457 3.7949 12.4345 3.89234 12.5226 3.99028C12.66 4.14287 12.7878 4.30231 12.9085 4.46744C13.0066 4.60148 13.0925 4.74438 13.1842 4.8831C13.3091 5.07162 13.4037 5.27653 13.5035 5.47842C13.5267 5.52556 13.5449 5.57519 13.5625 5.62483C13.5671 5.63804 13.5606 5.65542 13.559 5.6733L13.5588 5.67297Z" fill="#1C8B7F"/>
<path d="M6.6886 12.2256C6.65567 12.2045 6.63194 12.1893 6.60938 12.1748C6.72904 11.8057 6.8472 11.4417 6.96838 11.0684C7.00448 11.0777 7.0354 11.0857 7.06448 11.0933C7.07785 11.1783 7.03272 11.2395 7.0125 11.3062C6.95283 11.5031 6.88932 11.6986 6.82681 11.8947C6.79673 11.9889 6.76698 12.0834 6.73389 12.1766C6.7277 12.1942 6.70698 12.2064 6.6886 12.2256Z" fill="#1C8B7F"/>
<path d="M9.43939 12.1833C9.42535 12.1919 9.41198 12.1999 9.39878 12.2079C9.36535 12.2283 9.34513 12.2189 9.33326 12.1818C9.30636 12.0974 9.27761 12.0137 9.25003 11.9295C9.1912 11.7505 9.13304 11.5711 9.07371 11.3923C9.04613 11.3089 9.01655 11.2262 8.98797 11.1431C8.97694 11.1109 8.99064 11.0933 9.03827 11.0784C9.07605 11.0667 9.09961 11.0794 9.11098 11.116C9.1536 11.2533 9.19505 11.391 9.23967 11.5275C9.30502 11.7281 9.37321 11.9276 9.43889 12.128C9.44424 12.1446 9.43956 12.1645 9.43956 12.1833H9.43939Z" fill="#1C8B7F"/>
<path d="M6.59226 10.9206C6.57789 10.9589 6.56585 11.0023 6.5458 11.0416C6.43716 11.2545 6.32602 11.4663 6.21655 11.6789C6.17226 11.7649 6.13031 11.8522 6.08635 11.9408C6.0556 11.9553 6.01967 11.9546 6.00362 11.9232C5.99242 11.9013 5.99443 11.8647 6.00496 11.841C6.04457 11.7522 6.08919 11.6657 6.13332 11.5789C6.2127 11.4226 6.29309 11.2667 6.37298 11.1106C6.40775 11.0428 6.44218 10.9746 6.47761 10.907C6.50017 10.8639 6.52808 10.8661 6.59226 10.9204V10.9206Z" fill="#1C8B7F"/>
<path d="M10.0004 10.6094C10.1005 10.7434 10.1992 10.8734 10.2954 11.005C10.4132 11.1659 10.5294 11.328 10.6459 11.4898C10.671 11.5247 10.6663 11.5523 10.6332 11.5759C10.5936 11.604 10.5837 11.6028 10.5513 11.5587C10.4448 11.4134 10.3397 11.2674 10.2332 11.1223C10.1318 10.9839 10.0293 10.8462 9.92706 10.7081C9.89414 10.6637 9.91052 10.6194 9.96567 10.6083C9.9782 10.6058 9.99191 10.6092 10.0004 10.6095V10.6094Z" fill="#1C8B7F"/>
<path d="M10.6685 4.45795C10.6538 4.48453 10.6457 4.50425 10.6335 4.52113C10.5511 4.63428 10.4675 4.74659 10.3849 4.85941C10.2942 4.98342 10.2043 5.1081 10.1138 5.23228C10.0859 5.27072 10.0582 5.30933 10.0289 5.34676C10.0017 5.38186 9.97361 5.38554 9.94069 5.36097C9.90542 5.33473 9.90592 5.3222 9.93784 5.27707C10.0217 5.15907 10.1035 5.03941 10.1884 4.92208C10.3069 4.75846 10.4274 4.59617 10.5472 4.43339C10.5666 4.40698 10.5938 4.39344 10.6234 4.40882C10.642 4.41851 10.6538 4.44091 10.6685 4.45745V4.45795Z" fill="#1C8B7F"/>
<path d="M9.46892 10.9109C9.48446 10.9008 9.49282 10.8941 9.50201 10.8896C9.55031 10.8664 9.558 10.8681 9.58207 10.9149C9.63154 11.0111 9.6795 11.1081 9.72881 11.2045C9.82608 11.3942 9.92402 11.5836 10.0215 11.7733C10.0439 11.8169 10.0652 11.8608 10.0883 11.9073C10.0676 11.9205 10.0554 11.9307 10.0413 11.9369C9.99639 11.9569 9.98017 11.9516 9.95828 11.9093C9.92201 11.8391 9.88692 11.7686 9.85081 11.6982C9.78012 11.56 9.70892 11.4221 9.63822 11.2841C9.58691 11.184 9.53527 11.084 9.48596 10.9831C9.4751 10.961 9.47393 10.9343 9.46875 10.9112L9.46892 10.9109Z" fill="#1C8B7F"/>
<path d="M5.38672 4.46295C5.43301 4.38623 5.47346 4.38256 5.52427 4.45075C5.59079 4.53983 5.65363 4.63158 5.71931 4.72133C5.79101 4.81927 5.86539 4.91537 5.93642 5.01381C5.99943 5.10122 6.06026 5.19031 6.12026 5.27972C6.14817 5.32117 6.14366 5.35844 6.11341 5.37632C6.08082 5.39555 6.06243 5.38836 6.02984 5.3434C5.88561 5.14435 5.74171 4.94512 5.59697 4.7464C5.52744 4.6508 5.45625 4.55637 5.38689 4.46295H5.38672Z" fill="#1C8B7F"/>
<path d="M10.0934 4.06522C10.0637 4.12857 10.0386 4.18539 10.0109 4.24071C9.92497 4.41202 9.83856 4.58317 9.75115 4.75381C9.69867 4.85643 9.64536 4.95871 9.5897 5.05983C9.5795 5.07821 9.55811 5.0991 9.53923 5.10228C9.48875 5.11064 9.46218 5.06919 9.48457 5.02022C9.50847 4.9679 9.53471 4.91643 9.56095 4.86528C9.66491 4.66188 9.76903 4.45882 9.87349 4.25575C9.89873 4.20678 9.92413 4.15798 9.95188 4.11035C9.99232 4.04099 9.99333 4.04149 10.0934 4.06522Z" fill="#1C8B7F"/>
<path d="M6.16462 10.656C5.93197 10.9667 5.71169 11.2878 5.47369 11.5985C5.44244 11.5831 5.41937 11.5716 5.39062 11.5574C5.39296 11.542 5.39062 11.5216 5.39898 11.5079C5.42539 11.4651 5.45497 11.424 5.48505 11.3835C5.57932 11.2564 5.67425 11.1297 5.76901 11.003C5.82133 10.933 5.87481 10.8638 5.92645 10.7934C5.95737 10.7513 5.98612 10.7077 6.01486 10.664C6.06266 10.5917 6.09108 10.5883 6.16462 10.656Z" fill="#1C8B7F"/>
<path d="M7.4632 11.2055C7.48242 11.204 7.50064 11.201 7.51869 11.2012C7.58153 11.202 7.58772 11.2122 7.56632 11.2714C7.56097 11.2861 7.5573 11.3016 7.55546 11.3172C7.54209 11.4298 7.53674 11.544 7.51401 11.6546C7.49446 11.7495 7.48443 11.8456 7.46487 11.9396C7.44549 12.0327 7.43111 12.1249 7.42426 12.2193C7.42092 12.2658 7.40587 12.3114 7.39468 12.3646H7.30342C7.29473 12.3027 7.29339 12.2417 7.30743 12.1781C7.32381 12.1039 7.32799 12.027 7.34069 11.9519C7.35239 11.8826 7.36911 11.8141 7.38231 11.7449C7.39167 11.6957 7.40069 11.6463 7.40671 11.5966C7.41473 11.5309 7.41741 11.4647 7.4266 11.3992C7.43529 11.3374 7.4495 11.2764 7.4632 11.2052V11.2055Z" fill="#1C8B7F"/>
<path d="M6.72477 3.78125C6.75469 3.88454 6.77725 3.97028 6.80466 4.05468C6.83859 4.1588 6.87803 4.26092 6.9123 4.36488C6.96227 4.51647 7.00957 4.66872 7.05803 4.82065C7.07441 4.87196 7.0679 4.89535 7.03363 4.90689C6.99469 4.92009 6.96595 4.90538 6.95023 4.85775C6.9021 4.71134 6.85748 4.56376 6.80884 4.41752C6.74483 4.22465 6.67848 4.03262 6.61279 3.84025C6.60427 3.81501 6.61162 3.79529 6.63552 3.78977C6.66477 3.78292 6.69569 3.78359 6.72477 3.78125Z" fill="#1C8B7F"/>
<path d="M6.00107 4.05629C6.02631 4.05261 6.05188 4.04893 6.07946 4.04492C6.18709 4.25785 6.29289 4.46844 6.40002 4.67819C6.44899 4.77395 6.50147 4.86788 6.55144 4.96315C6.58153 5.02064 6.58069 5.02114 6.56932 5.09852H6.48409C6.38397 4.89763 6.28453 4.69523 6.18258 4.49401C6.1316 4.39339 6.07545 4.29545 6.02213 4.19584C5.9994 4.15339 5.98035 4.10994 6.00107 4.05629Z" fill="#1C8B7F"/>
<path d="M4.94164 11.1575C4.86024 11.105 4.85674 11.0816 4.91306 11.0253C5.1325 10.8062 5.35178 10.587 5.57123 10.3681C5.5993 10.34 5.62738 10.3119 5.65646 10.2849C5.6807 10.2625 5.7178 10.2653 5.74087 10.2887C5.76794 10.3161 5.76025 10.3395 5.73585 10.3639C5.64995 10.4503 5.56488 10.5377 5.4788 10.6242C5.36849 10.735 5.25785 10.8451 5.14688 10.9552C5.07952 11.0221 5.01133 11.0884 4.9413 11.1573L4.94164 11.1575Z" fill="#1C8B7F"/>
<path d="M9.34043 3.78298C9.36483 3.78098 9.37536 3.77864 9.38572 3.77947C9.4372 3.78331 9.45491 3.80471 9.44004 3.85084C9.38639 4.01747 9.3314 4.1836 9.27675 4.34989C9.22627 4.50349 9.17563 4.65692 9.12583 4.81068C9.11697 4.83792 9.11145 4.86633 9.10293 4.89993C9.09223 4.9026 9.07736 4.90929 9.06265 4.90945C9.01201 4.90995 8.99262 4.89057 9.00248 4.84143C9.01385 4.78511 9.03039 4.72945 9.04794 4.67463C9.08354 4.56349 9.12065 4.45301 9.15808 4.34254C9.20237 4.21184 9.24834 4.08181 9.29196 3.95078C9.31001 3.89646 9.32388 3.84081 9.34043 3.78315V3.78298Z" fill="#1C8B7F"/>
<path d="M10.3715 5.73315C10.2958 5.67916 10.2908 5.66178 10.3436 5.60512C10.4197 5.52356 10.5001 5.44635 10.5784 5.36713C10.6959 5.2488 10.8129 5.12997 10.9309 5.01214C10.9797 4.96334 11.0302 4.91637 11.08 4.86891C11.1061 4.844 11.133 4.83581 11.1649 4.86105C11.1975 4.88662 11.2024 4.90283 11.1746 4.93292C11.135 4.97587 11.0929 5.01648 11.0514 5.0576C10.9271 5.18111 10.8024 5.30429 10.6781 5.42763C10.5766 5.52824 10.4755 5.62919 10.3714 5.73298L10.3715 5.73315Z" fill="#1C8B7F"/>
<path d="M8.48828 11.2031H8.59408C8.61046 11.3139 8.62115 11.4256 8.64488 11.5344C8.65942 11.6009 8.64956 11.6708 8.68165 11.7356C8.69937 11.7714 8.6967 11.8173 8.70271 11.8588C8.71324 11.9313 8.72277 12.004 8.7338 12.0764C8.74399 12.1439 8.75636 12.2109 8.76622 12.2785C8.77007 12.3042 8.76957 12.3304 8.77157 12.3655C8.73798 12.3677 8.71023 12.3695 8.6855 12.371C8.65174 12.3411 8.64472 12.3077 8.64121 12.2686C8.63435 12.1929 8.61898 12.118 8.60812 12.0428C8.59759 11.9704 8.59508 11.8961 8.57653 11.8259C8.54694 11.714 8.55279 11.5979 8.51953 11.4857C8.49396 11.3993 8.49831 11.3041 8.48845 11.2033L8.48828 11.2031Z" fill="#1C8B7F"/>
<path d="M11.2022 11.0758C11.1825 11.0997 11.1665 11.1233 11.1462 11.1427C11.1284 11.1597 11.11 11.1557 11.0912 11.1368C10.9647 11.0085 10.8375 10.8808 10.7099 10.7534C10.5972 10.6409 10.4837 10.5293 10.3706 10.4172C10.3574 10.4041 10.3433 10.3918 10.3315 10.3774C10.3042 10.3446 10.3066 10.3154 10.337 10.2878C10.3644 10.2629 10.3793 10.2659 10.4147 10.301C10.6499 10.5348 10.885 10.7686 11.1205 11.0021C11.1446 11.026 11.1708 11.0476 11.2021 11.0757L11.2022 11.0758Z" fill="#1C8B7F"/>
<path d="M7.57302 4.76842C7.56232 4.7706 7.54945 4.77177 7.53759 4.77578C7.45319 4.80369 7.45686 4.80352 7.44934 4.71277C7.44349 4.64324 7.42628 4.57455 7.41558 4.50536C7.40472 4.43533 7.39703 4.36497 7.38567 4.29511C7.3738 4.2229 7.35842 4.15137 7.34589 4.07934C7.33553 4.01984 7.32583 3.96001 7.31831 3.9C7.30761 3.81427 7.29926 3.72836 7.28906 3.63477H7.39837C7.41291 3.7444 7.42594 3.85321 7.44216 3.96151C7.45269 4.03137 7.46873 4.10023 7.48076 4.16976C7.4933 4.24162 7.50366 4.31382 7.51536 4.38586C7.52672 4.45555 7.53909 4.52525 7.54979 4.59511C7.55798 4.64876 7.56433 4.70274 7.57319 4.76842H7.57302Z" fill="#1C8B7F"/>
<path d="M5.75599 5.63698C5.76318 5.68963 5.72473 5.70617 5.68278 5.73124C5.66574 5.71403 5.64802 5.69581 5.63014 5.6781C5.38713 5.43692 5.14412 5.19575 4.90094 4.95458C4.86918 4.92299 4.86634 4.89592 4.89375 4.86834C4.92417 4.83759 4.94506 4.83708 4.982 4.87352C5.08746 4.97814 5.19142 5.08427 5.29637 5.18957C5.43125 5.32494 5.56629 5.46032 5.70201 5.59503C5.71822 5.61124 5.73827 5.62361 5.75616 5.63715L5.75599 5.63698Z" fill="#1C8B7F"/>
<path d="M8.59205 4.8013C8.55244 4.78626 8.5262 4.77623 8.49712 4.7652C8.49395 4.71389 8.49812 4.66442 8.50966 4.6111C8.53473 4.49578 8.54108 4.37662 8.55896 4.25962C8.56916 4.19311 8.58788 4.12792 8.60074 4.06174C8.61077 4.01026 8.61896 3.95828 8.62548 3.90614C8.633 3.84597 8.64002 3.78547 8.64336 3.72497C8.64821 3.63438 8.66877 3.6185 8.76821 3.63856C8.76955 3.65076 8.77339 3.66413 8.77189 3.67667C8.76019 3.77059 8.74933 3.86486 8.73395 3.95812C8.72342 4.02196 8.70437 4.08447 8.69267 4.14815C8.67997 4.21751 8.67144 4.2877 8.66058 4.3574C8.64888 4.43227 8.63634 4.50681 8.62481 4.58169C8.61412 4.65088 8.60409 4.72024 8.59205 4.8013Z" fill="#1C8B7F"/>
<path d="M7.98828 3.56813C8.02137 3.56663 8.04695 3.56546 8.07168 3.56445C8.08956 3.62913 8.09224 4.659 8.07536 4.74374H7.98845V3.56813H7.98828Z" fill="#1C8B7F"/>
<path d="M7.99011 11.252H8.07134C8.08738 11.3116 8.09156 12.3066 8.07619 12.4083H7.99462C7.97908 12.3497 7.97457 11.3633 7.99011 11.252Z" fill="#1C8B7F"/>
<path d="M5.22514 10.0159V10.1005C5.10731 10.184 4.98815 10.2671 4.87082 10.3523C4.76168 10.4317 4.65388 10.5131 4.54608 10.5943C4.50079 10.6284 4.46118 10.6329 4.44246 10.603C4.42274 10.5714 4.43678 10.5322 4.47605 10.5031C4.6263 10.3918 4.77555 10.2791 4.92647 10.1688C4.99466 10.119 5.06737 10.0754 5.13506 10.0251C5.16263 10.0047 5.18703 10.0033 5.22481 10.0159H5.22514Z" fill="#1C8B7F"/>
<path d="M10.9074 10.0295C10.944 10.05 10.9799 10.0661 11.011 10.0885C11.2064 10.2297 11.4006 10.3724 11.5953 10.5143C11.6421 10.5484 11.6488 10.568 11.6217 10.6007C11.5961 10.6315 11.5602 10.632 11.5243 10.6054C11.352 10.4784 11.1793 10.352 11.0067 10.2252C10.9789 10.2048 10.9523 10.1824 10.9236 10.1635C10.8516 10.1162 10.8512 10.1169 10.9072 10.0293L10.9074 10.0295Z" fill="#1C8B7F"/>
<path d="M4.91637 5.66285C4.92923 5.69895 4.9167 5.72786 4.88678 5.74541C4.85837 5.76212 4.8328 5.74792 4.80756 5.72903C4.71079 5.65633 4.61235 5.58547 4.51475 5.51377C4.49553 5.49973 4.47614 5.48569 4.45859 5.46948C4.43519 5.44792 4.43001 5.40346 4.4494 5.38407C4.4728 5.36051 4.4972 5.35867 4.52661 5.38073C4.63408 5.46162 4.74338 5.54017 4.85219 5.61939C4.87325 5.63477 4.89531 5.64881 4.91637 5.66301V5.66285Z" fill="#1C8B7F"/>
<path d="M11.164 5.74479C11.1565 5.71956 11.1493 5.69465 11.1406 5.66557C11.2424 5.59153 11.3422 5.519 11.4418 5.44613C11.4674 5.42741 11.4911 5.40602 11.5173 5.3883C11.5518 5.3649 11.5904 5.36908 11.618 5.39632C11.6445 5.42256 11.643 5.44212 11.6114 5.46518C11.4899 5.55359 11.3676 5.6405 11.2473 5.73059C11.2203 5.75064 11.1966 5.75449 11.1639 5.74479H11.164Z" fill="#1C8B7F"/>
</svg>
