<svg xmlns="http://www.w3.org/2000/svg" viewBox="0 0 98 96">
  <path fill="currentColor" d="M49 0C21.9 0 0 22 0 49.1c0 21.7 14 40.1 33.5 46.6 2.5.5 3.4-1.1 3.4-2.4v-8.5c-13.6 3-16.5-5.9-16.5-5.9-2.2-5.7-5.4-7.2-5.4-7.2-4.4-3 .3-3 .3-3 4.9.4 7.5 5.1 7.5 5.1 4.4 7.5 11.5 5.3 14.3 4.1.4-3.2 1.7-5.3 3.1-6.6-10.9-1.2-22.3-5.5-22.3-24.3 0-5.4 1.9-9.8 5-13.2-.5-1.2-2.2-6.2.5-13 0 0 4.1-1.3 13.4 5 3.9-1.1 8-1.6 12.2-1.6s8.3.5 12.2 1.6c9.3-6.3 13.4-5 13.4-5 2.7 6.8 1 11.8.5 13 3.1 3.4 5 7.8 5 13.2 0 18.9-11.5 23-22.4 24.2 1.8 1.5 3.3 4.5 3.3 9.1v13c0 1.3.9 2.9 3.4 2.4C84 89.2 98 70.8 98 49.1 98 22 76.1 0 49 0Z"/>
</svg>
