<svg width="20" height="20" viewBox="0 0 20 20" fill="none" xmlns="http://www.w3.org/2000/svg">
<path d="M11.6673 9.16797H6.66732M8.33398 12.5013H6.66732M13.334 5.83464H6.66732M16.6673 8.7513V5.66797C16.6673 4.26784 16.6673 3.56777 16.3948 3.03299C16.1552 2.56259 15.7727 2.18014 15.3023 1.94045C14.7675 1.66797 14.0674 1.66797 12.6673 1.66797H7.33398C5.93385 1.66797 5.23379 1.66797 4.69901 1.94045C4.2286 2.18014 3.84615 2.56259 3.60647 3.03299C3.33398 3.56777 3.33398 4.26784 3.33398 5.66797V14.3346C3.33398 15.7348 3.33398 16.4348 3.60647 16.9696C3.84615 17.44 4.2286 17.8225 4.69901 18.0622C5.23379 18.3346 5.93385 18.3346 7.33398 18.3346H9.58398M18.334 18.3346L17.084 17.0846M17.9173 15.0013C17.9173 16.6121 16.6115 17.918 15.0007 17.918C13.3898 17.918 12.084 16.6121 12.084 15.0013C12.084 13.3905 13.3898 12.0846 15.0007 12.0846C16.6115 12.0846 17.9173 13.3905 17.9173 15.0013Z" stroke="#344054" stroke-width="1.5" stroke-linecap="round" stroke-linejoin="round"/>
</svg>
