<svg width="16" height="16" viewBox="0 0 16 16" fill="none" xmlns="http://www.w3.org/2000/svg">
<g clip-path="url(#clip0_53629_20815)">
<path d="M1.33337 6.66634C1.33337 4.7995 1.33337 3.86608 1.69669 3.15304C2.01626 2.52583 2.5262 2.0159 3.15341 1.69632C3.86644 1.33301 4.79987 1.33301 6.66671 1.33301H9.33338C11.2002 1.33301 12.1336 1.33301 12.8467 1.69632C13.4739 2.0159 13.9838 2.52583 14.3034 3.15304C14.6667 3.86608 14.6667 4.7995 14.6667 6.66634V12.7802C14.6667 13.4643 14.6667 13.8063 14.5582 14.0198C14.3762 14.3781 13.9974 14.5926 13.5965 14.5643C13.3576 14.5475 13.0643 14.3716 12.4777 14.0196C12.1278 13.8097 11.9529 13.7047 11.7695 13.6228C11.4649 13.4867 11.1415 13.3972 10.8103 13.3571C10.6109 13.333 10.4069 13.333 9.99889 13.333H6.66671C4.79987 13.333 3.86644 13.333 3.15341 12.9697C2.5262 12.6501 2.01626 12.1402 1.69669 11.513C1.33337 10.7999 1.33337 9.86652 1.33337 7.99967V6.66634Z" stroke="#2F384C" stroke-linecap="round" stroke-linejoin="round"/>
<path d="M4.66675 5.33301H10.0001M4.66675 7.99967H7.33341" stroke="#2F384C" stroke-linecap="round" stroke-linejoin="round"/>
</g>
<defs>
<clipPath id="clip0_53629_20815">
<rect width="16" height="16" rx="0.666667" fill="white"/>
</clipPath>
</defs>
</svg>
