<svg width="16" height="16" viewBox="0 0 16 16" fill="none" xmlns="http://www.w3.org/2000/svg">
<path d="M7.99996 8.66667V6M8.33329 11C8.33329 11.1841 8.18405 11.3333 7.99996 11.3333C7.81586 11.3333 7.66663 11.1841 7.66663 11M8.33329 11C8.33329 10.8159 8.18405 10.6667 7.99996 10.6667C7.81586 10.6667 7.66663 10.8159 7.66663 11M8.33329 11H7.66663M12.8873 6.72745L12.6533 6.30958C11.1325 3.59376 10.372 2.23584 9.3717 1.78417C8.4996 1.39039 7.50032 1.39039 6.62822 1.78417C5.62789 2.23584 4.86746 3.59376 3.34659 6.30958L3.11259 6.72745C1.65066 9.33803 0.919701 10.6433 1.04197 11.7122C1.14864 12.6447 1.64353 13.489 2.40504 14.0377C3.27788 14.6667 4.77391 14.6667 7.76595 14.6667H8.23397C11.226 14.6667 12.722 14.6667 13.5949 14.0377C14.3564 13.489 14.8513 12.6447 14.9579 11.7122C15.0802 10.6433 14.3493 9.33803 12.8873 6.72745Z" stroke="#2F384C" stroke-linecap="round" stroke-linejoin="round"/>
</svg>
