<svg width="16" height="16" viewBox="0 0 16 16" fill="none" xmlns="http://www.w3.org/2000/svg">
<path d="M9.99996 6.66634C11.4727 6.66634 12.6666 5.47243 12.6666 3.99967C12.6666 2.52692 11.4727 1.33301 9.99996 1.33301M11.3333 14.6663H13.2C14.3782 14.6663 15.3333 13.7112 15.3333 12.533C15.3333 10.7657 13.9006 9.33301 12.1333 9.33301H11.3333M7.99996 3.99967C7.99996 5.47243 6.80605 6.66634 5.33329 6.66634C3.86053 6.66634 2.66663 5.47243 2.66663 3.99967C2.66663 2.52692 3.86053 1.33301 5.33329 1.33301C6.80605 1.33301 7.99996 2.52692 7.99996 3.99967ZM2.79996 14.6663H7.86663C9.04483 14.6663 9.99996 13.7112 9.99996 12.533C9.99996 10.7657 8.56727 9.33301 6.79996 9.33301H3.86663C2.09931 9.33301 0.666626 10.7657 0.666626 12.533C0.666626 13.7112 1.62175 14.6663 2.79996 14.6663Z" stroke="#2F384C" stroke-linecap="round" stroke-linejoin="round"/>
</svg>
