<svg width="16" height="16" viewBox="0 0 16 16" fill="none" xmlns="http://www.w3.org/2000/svg">
<path d="M6.00004 5.99967L6.00004 14.6663M1.33337 5.99967H14.6667M6.6667 14.6663H9.33337C11.2002 14.6663 12.1336 14.6663 12.8467 14.303C13.4739 13.9835 13.9838 13.4735 14.3034 12.8463C14.6667 12.1333 14.6667 11.1999 14.6667 9.33301V6.66634C14.6667 4.7995 14.6667 3.86608 14.3034 3.15304C13.9838 2.52583 13.4739 2.0159 12.8467 1.69632C12.1336 1.33301 11.2002 1.33301 9.33338 1.33301H6.66671C4.79987 1.33301 3.86644 1.33301 3.15341 1.69632C2.5262 2.0159 2.01626 2.52583 1.69669 3.15304C1.33337 3.86608 1.33337 4.7995 1.33337 6.66634V9.33301C1.33337 11.1998 1.33337 12.1333 1.69669 12.8463C2.01626 13.4735 2.5262 13.9835 3.15341 14.303C3.86644 14.6663 4.79986 14.6663 6.6667 14.6663Z" stroke="#2F384C" stroke-linecap="round" stroke-linejoin="round"/>
</svg>
