<svg width="16" height="16" viewBox="0 0 16 16" fill="none" xmlns="http://www.w3.org/2000/svg">
<path d="M14 11.3333V6.26667C14 4.77319 14 4.02646 13.7093 3.45603C13.4536 2.95426 13.0457 2.54631 12.5439 2.29065C11.9735 2 11.2268 2 9.73329 2H6.26663C4.77315 2 4.02642 2 3.45598 2.29065C2.95422 2.54631 2.54627 2.95426 2.29061 3.45603C1.99996 4.02646 1.99996 4.77319 1.99996 6.26667V11.3333M3.037 14H12.9629C14.272 14 15.3333 12.9387 15.3333 11.6296C15.3333 11.466 15.2006 11.3333 15.037 11.3333H0.962922C0.799282 11.3333 0.666626 11.466 0.666626 11.6296C0.666626 12.9387 1.72788 14 3.037 14Z" stroke="#2F384C" stroke-linecap="round" stroke-linejoin="round"/>
</svg>
