<svg width="16" height="16" viewBox="0 0 16 16" fill="none" xmlns="http://www.w3.org/2000/svg">
<path d="M8.00004 8.33366L14 4.66699M8.00004 8.33366L2.00004 4.66699M8.00004 8.33366V15.0003M1.33337 7.68667V8.31398C1.33337 9.41512 1.33337 9.96569 1.49136 10.4604C1.63117 10.8982 1.86 11.3023 2.16347 11.6475C2.5064 12.0375 2.97851 12.3207 3.92273 12.8873L5.25606 13.6873C6.25373 14.2859 6.75256 14.5852 7.28508 14.7021C7.75611 14.8056 8.24397 14.8056 8.715 14.7021C9.24752 14.5852 9.74635 14.2859 10.744 13.6873L12.0774 12.8873C13.0216 12.3207 13.4937 12.0375 13.8366 11.6475C14.1401 11.3023 14.3689 10.8982 14.5087 10.4604C14.6667 9.96569 14.6667 9.41512 14.6667 8.31398V7.68667C14.6667 6.58553 14.6667 6.03496 14.5087 5.54025C14.3689 5.10246 14.1401 4.69831 13.8366 4.35318C13.4937 3.96318 13.0216 3.67991 12.0773 3.11338L10.744 2.31338C9.74635 1.71478 9.24752 1.41548 8.715 1.29854C8.24397 1.1951 7.75611 1.1951 7.28508 1.29854C6.75256 1.41548 6.25373 1.71478 5.25606 2.31338L3.92273 3.11338C2.97851 3.67991 2.5064 3.96318 2.16347 4.35318C1.86 4.69831 1.63117 5.10246 1.49136 5.54025C1.33337 6.03496 1.33337 6.58553 1.33337 7.68667Z" stroke="#2F384C" stroke-linecap="round" stroke-linejoin="round"/>
</svg>
