<svg width="20" height="20" viewBox="0 0 20 20" fill="none" xmlns="http://www.w3.org/2000/svg">
<path d="M13.0257 6.36078C12.6957 6.03076 12.5307 5.86576 12.4688 5.67548C12.4145 5.50811 12.4145 5.32782 12.4688 5.16045C12.5307 4.97018 12.6957 4.80517 13.0257 4.47516L15.391 2.10985C14.7633 1.82599 14.0665 1.66797 13.3329 1.66797C10.5714 1.66797 8.33287 3.90654 8.33287 6.66797C8.33287 7.07717 8.38203 7.47489 8.47476 7.85554C8.57406 8.26317 8.62371 8.46698 8.61489 8.59574C8.60566 8.73054 8.58556 8.80226 8.5234 8.92223C8.46402 9.03682 8.35025 9.15059 8.12272 9.37812L2.9162 14.5846C2.22585 15.275 2.22585 16.3943 2.9162 17.0846C3.60656 17.775 4.72585 17.775 5.4162 17.0846L10.6227 11.8781C10.8503 11.6506 10.964 11.5368 11.0786 11.4774C11.1986 11.4153 11.2703 11.3952 11.4051 11.3859C11.5339 11.3771 11.7377 11.4268 12.1453 11.5261C12.526 11.6188 12.9237 11.668 13.3329 11.668C16.0943 11.668 18.3329 9.42939 18.3329 6.66797C18.3329 5.9343 18.1749 5.23753 17.891 4.60985L15.5257 6.97516C15.1957 7.30517 15.0307 7.47018 14.8404 7.532C14.673 7.58639 14.4927 7.58639 14.3254 7.532C14.1351 7.47018 13.9701 7.30517 13.6401 6.97516L13.0257 6.36078Z" stroke="#344054" stroke-width="1.5" stroke-linecap="round" stroke-linejoin="round"/>
</svg>
