<svg width="24" height="24" viewBox="0 0 24 24" fill="none" xmlns="http://www.w3.org/2000/svg">
<path fill-rule="evenodd" clip-rule="evenodd" d="M10.1186 2.63934C8.5271 1.66674 7.73133 1.18043 7.07571 1.23778C6.50412 1.28779 5.98153 1.58087 5.64081 2.04253C5.25 2.57205 5.25 3.50465 5.25 5.36985V18.6329C5.25 20.4981 5.25 21.4307 5.64081 21.9602C5.98153 22.4218 6.50412 22.7149 7.07571 22.7649C7.73133 22.8223 8.5271 22.336 10.1186 21.3634L20.9702 14.7319C22.4475 13.8291 23.1861 13.3777 23.438 12.7966C23.6578 12.2892 23.6578 11.7135 23.438 11.2062C23.1861 10.625 22.4475 10.1736 20.9702 9.27085L10.1186 2.63934Z" fill="#344054"/>
</svg>
