<svg width="24" height="24" viewBox="0 0 24 24" fill="none" xmlns="http://www.w3.org/2000/svg">
<path d="M15.6277 7.63137C15.2317 7.23535 15.0337 7.03735 14.9595 6.80902C14.8942 6.60817 14.8942 6.39183 14.9595 6.19098C15.0337 5.96265 15.2317 5.76465 15.6277 5.36863L18.4661 2.53026C17.7128 2.18962 16.8767 2 15.9963 2C12.6826 2 9.99632 4.68629 9.99632 8C9.99632 8.49104 10.0553 8.9683 10.1666 9.42509C10.2857 9.91424 10.3453 10.1588 10.3347 10.3133C10.3237 10.4751 10.2996 10.5612 10.225 10.7051C10.1537 10.8426 10.0172 10.9791 9.74414 11.2522L3.49632 17.5C2.66789 18.3284 2.66789 19.6716 3.49632 20.5C4.32475 21.3284 5.66789 21.3284 6.49632 20.5L12.7441 14.2522C13.0172 13.9791 13.1537 13.8426 13.2912 13.7714C13.4352 13.6968 13.5212 13.6727 13.683 13.6616C13.8375 13.651 14.0821 13.7106 14.5712 13.8297C15.028 13.941 15.5053 14 15.9963 14C19.31 14 21.9963 11.3137 21.9963 8C21.9963 7.11959 21.8067 6.28347 21.4661 5.53026L18.6277 8.36863C18.2317 8.76465 18.0337 8.96265 17.8053 9.03684C17.6045 9.1021 17.3881 9.1021 17.1873 9.03684C16.959 8.96265 16.761 8.76465 16.3649 8.36863L15.6277 7.63137Z" stroke="#344054" stroke-width="2" stroke-linecap="round" stroke-linejoin="round"/>
</svg>
