<svg width="512" height="512" viewBox="0 0 512 512" fill="none" xmlns="http://www.w3.org/2000/svg">
<g clip-path="url(#clip0_52020_158975)">
<path d="M69.4738 334.902C72.2014 334.902 74.7364 334.787 77.2458 334.973C77.9646 335.031 78.876 335.826 79.2546 336.526C80.9875 339.722 82.47 343.053 84.2092 346.249C86.0897 349.708 88.1562 353.065 90.1394 356.466C91.3074 358.469 92.3664 360.548 93.6628 362.467C96.2556 366.305 98.7907 370.201 101.692 373.801C106.543 379.821 111.312 385.976 116.761 391.425C123.005 397.669 129.834 403.362 136.637 409.022C146.662 417.372 157.784 424.104 169.452 429.887C175.773 433.025 182.223 435.958 188.821 438.448C194.43 440.566 200.328 441.946 206.111 443.608C209.878 444.687 213.639 445.79 217.451 446.682C219.896 447.254 222.431 447.414 224.915 447.838C227.488 448.274 230.049 448.8 232.61 449.295C233.008 449.372 233.393 449.564 233.791 449.59C237.244 449.84 240.697 450.212 244.156 450.257C251.645 450.36 259.141 450.366 266.631 450.257C270.912 450.2 275.199 450.001 279.454 449.564C282.438 449.256 285.365 448.39 288.33 447.851C291.507 447.273 294.735 446.946 297.88 446.246C305.722 444.5 313.398 442.216 321.01 439.565C327.601 437.267 334.102 434.809 340.36 431.78C346.271 428.911 352.04 425.709 357.714 422.397C362.174 419.792 366.481 416.891 370.716 413.926C373.874 411.718 376.935 409.324 379.836 406.789C385.182 402.11 390.56 397.444 395.592 392.445C401.811 386.277 407.407 379.558 412.715 372.55C416.713 367.28 420.198 361.716 423.792 356.21C425.756 353.193 427.335 349.92 429.029 346.737C431.064 342.905 433.04 339.042 435.158 334.973C438.143 334.877 441.255 334.568 444.811 335.255C444.021 337.052 443.444 338.528 442.738 339.934C440.665 344.099 438.65 348.296 436.403 352.372C433.856 356.986 431.237 361.581 428.375 365.997C425.57 370.323 422.509 374.501 419.383 378.608C416.194 382.799 412.972 386.99 409.435 390.885C405.334 395.397 400.983 399.704 396.542 403.888C391.953 408.214 387.249 412.437 382.352 416.409C378.501 419.535 374.259 422.179 370.229 425.086C362.803 430.439 354.71 434.688 346.611 438.846C340.719 441.869 334.423 444.147 328.211 446.49C322.396 448.685 316.479 450.617 310.549 452.478C307.783 453.344 304.869 453.755 302.026 454.39C298.316 455.225 294.639 456.207 290.904 456.887C288.317 457.362 285.615 457.24 283.035 457.747C277.651 458.812 272.093 458.151 266.74 459.48C266.06 459.647 265.309 459.531 264.59 459.531C259.661 459.531 254.732 459.647 249.81 459.499C245.343 459.364 240.831 459.281 236.441 458.549C232.129 457.83 227.816 457.426 223.484 456.983C220.223 456.649 217.034 455.597 213.812 454.872C212.528 454.583 211.219 454.378 209.948 454.044C205.687 452.914 201.381 451.926 197.202 450.546C191.394 448.627 185.663 446.471 179.945 444.301C175.709 442.691 171.46 441.054 167.366 439.122C163.528 437.306 159.863 435.137 156.173 433.025C148.85 428.834 141.701 424.361 135.013 419.188C131.15 416.204 127.273 413.232 123.448 410.197C122.1 409.125 120.875 407.899 119.636 406.699C116.119 403.304 112.435 400.063 109.162 396.45C102.956 389.595 96.5572 382.889 91.4614 375.097C88.1947 370.104 84.5494 365.355 81.4816 360.253C78.3112 354.977 75.5772 349.426 72.7597 343.945C71.5724 341.628 70.629 339.183 69.6278 336.776C69.4481 336.353 69.5315 335.82 69.4609 334.896L69.4738 334.902Z" fill="#1C8B7F"/>
<path d="M73.7812 166.926C73.9353 163.557 75.6874 161.477 76.9003 159.212C80.8602 151.793 85.1794 144.566 90.1469 137.802C97.1295 128.297 104.51 119.087 113.161 110.994C117.551 106.887 121.755 102.548 126.421 98.7746C133.763 92.838 141.362 87.2031 149.442 82.2613C157.047 77.6084 164.832 73.2635 173.008 69.7529C180.305 66.621 187.866 64.0987 195.33 61.3647C198.243 60.2929 201.183 59.2404 204.173 58.4189C206.895 57.6744 209.699 57.2444 212.472 56.6989C216.509 55.9031 220.539 55.0367 224.602 54.3821C227.81 53.8686 231.116 53.8879 234.286 53.2333C239.549 52.1486 244.888 52.8418 250.113 52.1871C253.142 51.8085 256.216 51.0512 259.149 51.571C264.425 52.5016 269.719 52.0395 274.976 52.5016C280.091 52.9509 285.135 54.273 290.257 54.6837C296.642 55.1971 302.637 57.4113 308.913 58.374C312.745 58.9644 316.486 60.3892 320.151 61.7626C327.301 64.4517 334.444 67.1793 341.452 70.2278C354.442 75.8755 366.52 83.1598 377.899 91.548C384.599 96.4834 390.927 101.894 396.979 107.638C404.841 115.108 412.042 123.124 418.762 131.634C423.684 137.866 427.971 144.489 432.098 151.228C434.633 155.367 436.867 159.693 439.151 163.987C439.53 164.699 439.466 165.649 439.671 166.881C436.706 166.881 434.165 166.965 431.63 166.843C430.462 166.785 429.762 165.963 429.197 164.821C425.603 157.556 421.419 150.637 416.573 144.123C413.602 140.125 410.938 135.87 407.697 132.109C403.038 126.699 398.077 121.539 393.065 116.443C389.631 112.952 385.998 109.634 382.257 106.476C378.149 103.01 373.882 99.718 369.537 96.554C366.187 94.1152 362.727 91.7919 359.114 89.7703C352.228 85.9003 345.283 82.133 338.224 78.5967C329.836 74.3994 320.966 71.3253 311.994 68.6554C306.892 67.1408 301.629 66.1653 296.424 64.9972C292.419 64.0987 288.421 63.0911 284.365 62.475C280.944 61.9552 277.414 62.1605 273.994 61.6343C265.573 60.3379 257.115 60.6138 248.669 60.7935C243.631 60.9026 238.612 61.7177 233.587 62.2247C230.557 62.5328 227.528 62.8216 224.512 63.2195C222.83 63.4377 221.162 63.8099 219.506 64.2078C213.653 65.6262 207.748 66.8905 201.972 68.5784C196.684 70.1187 191.498 72.0569 186.319 73.9566C177.096 77.3324 168.323 81.6901 159.819 86.5806C149.506 92.5107 139.706 99.1853 130.753 107.041C126.016 111.2 121.216 115.326 116.858 119.87C110.305 126.705 104.228 133.964 98.6506 141.652C93.2082 149.161 88.3948 157.036 83.9921 165.174C83.3567 166.348 82.5802 167.035 81.1041 166.958C78.7744 166.836 76.4318 166.926 73.7877 166.926H73.7812Z" fill="#1C8B7F"/>
<path d="M40.3591 335.037H46.3598C47.7268 338.143 48.9847 341.089 50.3132 344.009C52.5723 348.964 54.6517 354.021 57.2253 358.809C60.6204 365.111 64.3235 371.259 68.0844 377.363C72.7245 384.891 78.1669 391.855 83.7761 398.69C90.8871 407.36 98.6014 415.382 107.015 422.827C113.209 428.308 119.549 433.59 126.282 438.352C134.458 444.141 142.763 449.776 151.908 454.031C158.583 457.137 165.129 460.539 171.868 463.497C178.87 466.578 186.096 469.145 193.503 471.07C198.932 472.482 204.246 474.267 209.862 475.114C214.592 475.826 219.296 476.949 224.039 477.796C229.584 478.785 235.219 478.611 240.713 479.394C250.012 480.723 259.28 479.818 268.553 480.075C270.735 480.133 272.93 479.491 275.125 479.253C277.346 479.016 279.579 478.881 281.806 478.708C282.416 478.663 283.039 478.695 283.642 478.599C287.127 478.047 290.605 477.482 294.077 476.898C295.855 476.596 297.62 476.186 299.404 475.922C307.683 474.716 315.725 472.508 323.67 469.979C334.317 466.591 344.817 462.811 354.739 457.593C359.752 454.955 364.892 452.529 369.783 449.686C374.795 446.779 379.608 443.531 384.448 440.335C393.837 434.142 402.353 426.838 410.594 419.227C414.393 415.716 417.788 411.763 421.37 408.015C422.076 407.277 422.839 406.596 423.539 405.852C431.767 397.059 439.019 387.503 445.527 377.382C450.231 370.066 454.608 362.563 458.234 354.637C460.121 350.523 462.136 346.461 464.042 342.36C464.761 340.813 465.531 339.247 465.961 337.604C466.584 335.242 468.073 334.607 470.261 334.864C471.063 334.96 471.878 334.998 473.104 335.095C472.899 336.507 472.989 337.887 472.495 339.01C469.446 345.883 466.314 352.712 463.124 359.521C460.037 366.112 456.193 372.28 452.432 378.505C448.068 385.719 443.081 392.483 437.921 399.087C430.573 408.496 422.39 417.224 413.456 425.17C406.936 430.965 400.313 436.696 393.317 441.888C386.816 446.715 379.936 451.117 372.895 455.128C364.918 459.672 356.735 463.953 348.334 467.637C341.268 470.737 334.054 473.65 326.52 475.601C323.028 476.506 319.627 477.751 316.161 478.746C313.459 479.523 310.732 480.229 307.978 480.819C304.057 481.66 300.123 482.449 296.163 483.11C293.269 483.592 290.329 483.784 287.422 484.201C283.751 484.734 280.093 485.382 276.428 485.941C275.722 486.05 274.997 485.986 274.278 486.005C268.752 486.146 263.22 486.416 257.694 486.403C251.039 486.39 244.384 486.14 237.728 485.992C234.372 484.189 230.585 485.581 227.004 484.375C223.327 483.136 219.206 483.264 215.298 482.655C211.736 482.103 208.18 481.461 204.663 480.678C202.026 480.088 199.458 479.183 196.846 478.47C194.234 477.758 191.539 477.309 189.004 476.391C182.291 473.971 175.513 471.783 168.89 469.062C161.862 466.167 154.983 463.016 148.301 459.454C141.152 455.642 134.214 451.457 127.475 446.914C115.102 438.564 103.601 429.213 93.2553 418.463C88.3777 413.393 83.3076 408.47 78.8664 403.028C73.4176 396.347 68.3347 389.352 63.4956 382.215C59.5935 376.452 56.1407 370.361 52.7649 364.264C48.4135 356.409 44.781 348.194 41.4886 339.844C40.9495 338.477 40.7891 336.962 40.3398 335.037H40.3591Z" fill="#1C8B7F"/>
<path d="M468.947 166.641C468.241 166.751 467.65 166.892 467.06 166.917C463.132 167.071 463.254 167.014 461.714 163.426C460.173 159.826 458.428 156.309 456.631 152.824C454.737 149.146 452.831 145.456 450.649 141.945C447.504 136.895 444.135 131.979 440.785 127.062C438.5 123.712 436.235 120.324 433.661 117.192C429.464 112.083 425.17 107.045 420.652 102.225C416.403 97.6878 412.001 93.2594 407.348 89.1391C402.098 84.4862 396.578 80.1156 391.014 75.8413C386.592 72.4526 382.036 69.2052 377.318 66.2401C372.621 63.275 367.557 60.894 362.833 57.9675C356.608 54.1103 349.901 51.28 343.207 48.4562C337.47 46.0366 331.552 44.0086 325.654 41.9998C319.667 39.9589 313.582 38.226 307.357 37.0066C303.635 36.2814 300.009 35.0684 296.286 34.3881C292.294 33.6565 288.251 33.0276 284.208 32.8286C279.144 32.5783 274.17 31.1279 269.055 31.7697C262.079 30.101 254.981 30.884 247.979 31.16C244.051 31.314 239.995 31.2241 236.151 31.9365C231.639 32.7773 227.076 32.7323 222.602 33.5217C218.848 34.1892 215.164 35.2225 211.442 36.0375C208.695 36.6344 205.89 37.0066 203.169 37.6934C196.661 39.3363 190.134 40.9023 183.896 43.4887C180.366 44.952 176.599 45.8248 173.063 47.2817C167.935 49.3932 162.878 51.6843 157.878 54.0975C148.194 58.7697 138.83 64.0901 130.057 70.277C122.336 75.7193 114.962 81.688 107.716 87.7593C102.89 91.8026 98.4485 96.3336 94.0522 100.852C90.869 104.131 87.9809 107.706 85.0672 111.236C81.3641 115.716 77.6096 120.163 74.1761 124.842C71.2495 128.827 68.6888 133.089 66.051 137.28C64.1128 140.354 62.1489 143.434 60.461 146.65C57.3227 152.631 54.3384 158.696 51.399 164.78C50.9241 165.762 50.6096 166.763 49.4351 166.821C48.0168 166.898 46.4636 167.065 45.2057 166.577C44.0441 166.128 44.1532 164.575 44.6217 163.555C46.592 159.255 48.5494 154.942 50.7572 150.764C54.8903 142.96 59.1903 135.239 64.1898 127.961C68.0277 122.371 72.1673 116.986 76.2747 111.589C82.5129 103.393 89.6046 95.9421 97.1521 88.9787C103.807 82.8368 110.726 76.9451 117.85 71.3488C126.572 64.4944 135.89 58.4552 145.735 53.3081C151.621 50.2275 157.532 47.1662 163.596 44.4578C170.297 41.4671 177.119 38.7459 184.159 36.6087C186.752 35.8193 189.249 34.7155 191.848 33.9389C194.357 33.1944 196.95 32.7195 199.485 32.0713C202.778 31.2305 206.051 30.3192 209.337 29.4785C209.921 29.3309 210.563 29.4143 211.159 29.3052C215.408 28.5415 219.657 27.7585 223.905 26.9819C224.207 26.9241 224.509 26.8856 224.81 26.86C228.853 26.5519 232.89 26.0642 236.94 25.9871C248.73 25.7625 260.519 25.6662 272.315 25.6021C275.486 25.5828 278.676 25.6727 281.827 26.0192C284.901 26.3594 287.924 27.1552 290.985 27.643C294.874 28.2591 298.789 28.734 302.685 29.3309C304.463 29.6068 306.234 29.9726 307.986 30.3962C312.286 31.4488 316.586 32.5141 320.86 33.6629C322.792 34.1828 324.685 34.8695 326.566 35.5562C332.611 37.764 338.728 39.8048 344.658 42.2886C351.64 45.2151 358.636 48.1994 365.291 51.7742C374.052 56.4785 382.498 61.7476 390.623 67.5301C400.609 74.6411 409.915 82.5415 418.727 91.026C422.366 94.5237 425.773 98.2654 429.156 102.026C434.431 107.886 439.341 114.008 443.975 120.349C447.742 125.496 451.041 130.984 454.564 136.311C459.358 143.55 462.991 151.418 466.822 159.171C467.714 160.981 468.414 162.887 469.088 164.793C469.267 165.3 469.017 165.968 468.953 166.654L468.947 166.641Z" fill="#1C8B7F"/>
<path d="M205.163 418.242C203.899 417.433 202.988 416.849 202.121 416.291C206.716 402.12 211.254 388.142 215.907 373.805C217.293 374.164 218.48 374.472 219.597 374.761C220.11 378.028 218.378 380.377 217.601 382.937C215.31 390.498 212.871 398.007 210.471 405.535C209.316 409.154 208.173 412.781 206.902 416.362C206.665 417.036 205.869 417.504 205.163 418.242Z" fill="#1C8B7F"/>
<path d="M310.742 416.629C310.203 416.957 309.69 417.265 309.183 417.573C307.899 418.356 307.123 417.997 306.667 416.572C305.634 413.331 304.53 410.115 303.471 406.881C301.212 400.007 298.978 393.121 296.7 386.254C295.641 383.051 294.505 379.874 293.408 376.685C292.984 375.446 293.51 374.772 295.339 374.201C296.79 373.752 297.695 374.239 298.131 375.645C299.768 380.914 301.359 386.202 303.073 391.446C305.582 399.147 308.201 406.81 310.723 414.505C310.928 415.141 310.749 415.904 310.749 416.629H310.742Z" fill="#1C8B7F"/>
<path d="M201.444 368.111C200.892 369.58 200.43 371.249 199.659 372.757C195.488 380.934 191.22 389.065 187.016 397.229C185.315 400.534 183.705 403.884 182.017 407.285C180.836 407.844 179.456 407.818 178.84 406.612C178.41 405.771 178.487 404.365 178.891 403.454C180.412 400.046 182.126 396.722 183.82 393.391C186.869 387.39 189.956 381.402 193.023 375.408C194.358 372.802 195.68 370.184 197.041 367.591C197.907 365.935 198.979 366.018 201.444 368.104V368.111Z" fill="#1C8B7F"/>
<path d="M332.326 356.193C336.17 361.34 339.957 366.333 343.654 371.384C348.178 377.565 352.639 383.79 357.112 390.003C358.075 391.344 357.895 392.403 356.624 393.308C355.103 394.386 354.724 394.341 353.479 392.647C349.391 387.07 345.354 381.46 341.266 375.89C337.37 370.576 333.436 365.287 329.509 359.986C328.244 358.279 328.873 356.578 330.991 356.155C331.472 356.058 331.999 356.187 332.326 356.2V356.193Z" fill="#1C8B7F"/>
<path d="M357.933 119.985C357.368 121.006 357.054 121.763 356.585 122.411C353.421 126.756 350.212 131.069 347.042 135.401C343.557 140.163 340.104 144.951 336.632 149.719C335.56 151.195 334.495 152.678 333.372 154.115C332.326 155.463 331.248 155.604 329.983 154.661C328.629 153.653 328.648 153.172 329.874 151.439C333.096 146.908 336.234 142.313 339.495 137.808C344.045 131.524 348.672 125.293 353.274 119.042C354.018 118.028 355.064 117.508 356.2 118.098C356.913 118.47 357.368 119.33 357.933 119.966V119.985Z" fill="#1C8B7F"/>
<path d="M311.987 367.742C312.584 367.357 312.905 367.1 313.258 366.927C315.112 366.035 315.408 366.099 316.332 367.896C318.231 371.593 320.073 375.315 321.967 379.018C325.702 386.303 329.463 393.574 333.204 400.858C334.064 402.533 334.886 404.221 335.772 406.006C334.976 406.513 334.507 406.904 333.968 407.141C332.242 407.912 331.619 407.706 330.778 406.083C329.386 403.387 328.038 400.679 326.652 397.977C323.937 392.669 321.203 387.374 318.488 382.073C316.518 378.229 314.535 374.391 312.642 370.515C312.224 369.667 312.179 368.641 311.98 367.755L311.987 367.742Z" fill="#1C8B7F"/>
<path d="M155.199 120.177C156.977 117.231 158.53 117.09 160.481 119.708C163.035 123.129 165.449 126.652 167.971 130.099C170.724 133.86 173.58 137.55 176.308 141.33C178.727 144.687 181.063 148.107 183.367 151.541C184.439 153.133 184.266 154.564 183.104 155.25C181.853 155.989 181.147 155.713 179.895 153.986C174.357 146.342 168.831 138.692 163.273 131.061C160.603 127.39 157.869 123.764 155.206 120.177H155.199Z" fill="#1C8B7F"/>
<path d="M335.887 104.885C334.745 107.317 333.782 109.499 332.717 111.623C329.418 118.202 326.1 124.774 322.743 131.326C320.728 135.267 318.681 139.195 316.544 143.077C316.152 143.783 315.331 144.586 314.606 144.708C312.667 145.028 311.647 143.437 312.507 141.556C313.425 139.548 314.432 137.571 315.44 135.607C319.432 127.796 323.43 119.999 327.441 112.201C328.41 110.321 329.386 108.447 330.451 106.617C332.004 103.954 332.043 103.973 335.887 104.885Z" fill="#1C8B7F"/>
<path d="M185.03 358.017C176.096 369.947 167.637 382.276 158.498 394.207C157.298 393.616 156.412 393.174 155.309 392.628C155.398 392.038 155.309 391.255 155.629 390.728C156.644 389.085 157.779 387.507 158.935 385.954C162.554 381.07 166.2 376.205 169.839 371.34C171.847 368.651 173.901 365.994 175.884 363.292C177.072 361.675 178.176 360 179.279 358.325C181.115 355.546 182.206 355.417 185.03 358.017Z" fill="#1C8B7F"/>
<path d="M234.899 379.077C235.637 379.02 236.336 378.904 237.029 378.91C239.443 378.943 239.68 379.334 238.858 381.606C238.653 382.171 238.512 382.768 238.441 383.364C237.928 387.69 237.723 392.073 236.85 396.322C236.099 399.967 235.714 403.658 234.963 407.265C234.218 410.839 233.666 414.382 233.403 418.008C233.275 419.792 232.697 421.544 232.267 423.585H228.763C228.429 421.211 228.378 418.868 228.917 416.423C229.546 413.573 229.707 410.621 230.194 407.74C230.644 405.076 231.285 402.445 231.792 399.788C232.152 397.901 232.498 396.001 232.729 394.095C233.037 391.573 233.14 389.031 233.493 386.516C233.827 384.141 234.372 381.798 234.899 379.064V379.077Z" fill="#1C8B7F"/>
<path d="M206.533 94.0254C207.682 97.9916 208.548 101.284 209.601 104.525C210.903 108.523 212.418 112.445 213.734 116.437C215.653 122.258 217.469 128.104 219.33 133.938C219.959 135.909 219.709 136.807 218.393 137.25C216.898 137.757 215.794 137.192 215.191 135.363C213.342 129.741 211.629 124.074 209.761 118.458C207.303 111.052 204.755 103.678 202.233 96.2909C201.906 95.3218 202.188 94.5645 203.106 94.3527C204.229 94.0896 205.416 94.1152 206.533 94.0254Z" fill="#1C8B7F"/>
<path d="M178.751 104.542C179.721 104.401 180.702 104.259 181.761 104.105C185.895 112.282 189.957 120.368 194.071 128.423C195.951 132.1 197.967 135.707 199.886 139.365C201.041 141.573 201.009 141.592 200.572 144.564H197.299C193.455 136.85 189.636 129.077 185.721 121.35C183.764 117.487 181.607 113.726 179.56 109.901C178.687 108.271 177.956 106.602 178.751 104.542Z" fill="#1C8B7F"/>
<path d="M138.047 377.261C134.922 375.246 134.787 374.347 136.95 372.184C145.376 363.771 153.797 355.357 162.223 346.949C163.302 345.871 164.38 344.793 165.496 343.753C166.427 342.893 167.852 343.002 168.738 343.901C169.777 344.953 169.482 345.852 168.545 346.789C165.246 350.107 161.979 353.463 158.674 356.781C154.438 361.037 150.19 365.266 145.928 369.495C143.342 372.062 140.723 374.61 138.034 377.255L138.047 377.261Z" fill="#1C8B7F"/>
<path d="M306.932 94.0868C307.869 94.0098 308.273 93.9199 308.671 93.952C310.648 94.0996 311.328 94.9211 310.757 96.6924C308.697 103.091 306.585 109.47 304.487 115.856C302.548 121.754 300.604 127.646 298.691 133.55C298.351 134.596 298.139 135.687 297.812 136.977C297.401 137.08 296.83 137.337 296.265 137.343C294.321 137.363 293.576 136.618 293.955 134.731C294.391 132.568 295.027 130.431 295.7 128.326C297.067 124.058 298.492 119.816 299.93 115.574C301.631 110.555 303.395 105.562 305.071 100.53C305.764 98.4445 306.296 96.3074 306.932 94.0932V94.0868Z" fill="#1C8B7F"/>
<path d="M346.636 168.959C343.729 166.886 343.536 166.218 345.564 164.043C348.484 160.911 351.571 157.946 354.581 154.904C359.093 150.36 363.586 145.797 368.117 141.272C369.991 139.398 371.929 137.595 373.841 135.772C374.842 134.816 375.876 134.501 377.102 135.47C378.353 136.452 378.539 137.075 377.474 138.23C375.953 139.879 374.335 141.439 372.744 143.018C367.969 147.76 363.181 152.49 358.406 157.227C354.511 161.09 350.628 164.967 346.629 168.952L346.636 168.959Z" fill="#1C8B7F"/>
<path d="M274.352 379.006H278.414C279.043 383.261 279.454 387.548 280.365 391.726C280.923 394.28 280.545 396.963 281.777 399.453C282.457 400.827 282.355 402.592 282.586 404.183C282.99 406.969 283.356 409.76 283.779 412.539C284.171 415.132 284.646 417.706 285.025 420.299C285.172 421.287 285.153 422.295 285.23 423.642C283.94 423.726 282.875 423.796 281.925 423.854C280.628 422.705 280.359 421.422 280.224 419.92C279.961 417.013 279.37 414.137 278.953 411.249C278.549 408.47 278.453 405.614 277.74 402.919C276.604 398.625 276.829 394.165 275.552 389.859C274.57 386.54 274.737 382.882 274.358 379.012L274.352 379.006Z" fill="#1C8B7F"/>
<path d="M378.427 374.092C377.67 375.009 377.054 375.914 376.277 376.659C375.59 377.314 374.884 377.159 374.166 376.434C369.307 371.505 364.423 366.602 359.52 361.712C355.194 357.392 350.837 353.105 346.492 348.799C345.985 348.298 345.446 347.823 344.99 347.271C343.944 346.013 344.034 344.89 345.202 343.831C346.254 342.875 346.826 342.991 348.186 344.338C357.216 353.317 366.246 362.296 375.289 371.261C376.213 372.179 377.221 373.007 378.421 374.085L378.427 374.092Z" fill="#1C8B7F"/>
<path d="M239.185 131.868C238.774 131.952 238.28 131.997 237.825 132.151C234.584 133.223 234.725 133.216 234.436 129.731C234.211 127.061 233.55 124.424 233.14 121.767C232.722 119.078 232.427 116.376 231.991 113.693C231.535 110.92 230.945 108.174 230.463 105.408C230.065 103.123 229.693 100.825 229.404 98.5211C228.994 95.2287 228.673 91.93 228.281 88.3359H232.479C233.037 92.5461 233.537 96.7241 234.16 100.883C234.564 103.566 235.18 106.21 235.643 108.88C236.124 111.639 236.522 114.412 236.971 117.178C237.407 119.854 237.882 122.53 238.293 125.213C238.608 127.273 238.852 129.346 239.192 131.868H239.185Z" fill="#1C8B7F"/>
<path d="M169.342 165.254C169.618 167.276 168.142 167.911 166.531 168.874C165.876 168.213 165.196 167.513 164.509 166.833C155.177 157.572 145.846 148.311 136.508 139.05C135.288 137.837 135.179 136.797 136.232 135.738C137.4 134.557 138.202 134.538 139.62 135.937C143.67 139.955 147.662 144.03 151.693 148.074C156.872 153.272 162.057 158.47 167.269 163.643C167.891 164.266 168.661 164.741 169.348 165.261L169.342 165.254Z" fill="#1C8B7F"/>
<path d="M278.294 133.134C276.773 132.557 275.766 132.172 274.649 131.748C274.527 129.778 274.687 127.878 275.13 125.831C276.093 121.402 276.337 116.827 277.023 112.334C277.415 109.78 278.134 107.277 278.628 104.735C279.013 102.759 279.328 100.763 279.578 98.7602C279.867 96.4497 280.136 94.1265 280.265 91.8032C280.451 88.3247 281.24 87.715 285.059 88.4851C285.11 88.9537 285.258 89.4671 285.2 89.9484C284.751 93.5553 284.333 97.175 283.743 100.756C283.339 103.208 282.607 105.608 282.158 108.053C281.67 110.717 281.343 113.412 280.926 116.088C280.476 118.964 279.995 121.826 279.552 124.701C279.141 127.358 278.756 130.022 278.294 133.134Z" fill="#1C8B7F"/>
<path d="M255.012 85.8267C256.282 85.769 257.264 85.7241 258.214 85.6855C258.901 88.1693 259.004 127.716 258.355 130.97H255.018V85.8267H255.012Z" fill="#1C8B7F"/>
<path d="M255.132 380.83H258.251C258.867 383.121 259.028 421.327 258.437 425.235H255.305C254.708 422.983 254.535 385.104 255.132 380.83Z" fill="#1C8B7F"/>
<path d="M149.024 333.409V336.657C144.5 339.866 139.924 343.056 135.418 346.329C131.227 349.377 127.088 352.503 122.948 355.622C121.209 356.931 119.688 357.104 118.969 355.955C118.212 354.743 118.751 353.234 120.259 352.118C126.029 347.843 131.76 343.518 137.556 339.282C140.174 337.369 142.966 335.694 145.565 333.762C146.624 332.979 147.561 332.928 149.011 333.409H149.024Z" fill="#1C8B7F"/>
<path d="M367.223 333.907C368.629 334.696 370.008 335.312 371.202 336.172C378.705 341.595 386.162 347.076 393.639 352.525C395.436 353.834 395.693 354.585 394.653 355.843C393.671 357.024 392.291 357.043 390.911 356.023C384.295 351.145 377.665 346.293 371.035 341.422C369.97 340.639 368.949 339.779 367.846 339.054C365.079 337.238 365.067 337.263 367.217 333.9L367.223 333.907Z" fill="#1C8B7F"/>
<path d="M137.037 166.223C137.531 167.61 137.05 168.72 135.901 169.394C134.81 170.035 133.828 169.49 132.859 168.765C129.143 165.973 125.363 163.252 121.615 160.499C120.877 159.959 120.132 159.42 119.458 158.798C118.56 157.97 118.361 156.263 119.105 155.518C120.004 154.613 120.941 154.543 122.07 155.39C126.197 158.496 130.394 161.513 134.572 164.555C135.381 165.145 136.228 165.684 137.037 166.23V166.223Z" fill="#1C8B7F"/>
<path d="M377.098 169.4C376.809 168.431 376.533 167.475 376.199 166.358C380.108 163.515 383.939 160.73 387.764 157.931C388.746 157.213 389.658 156.391 390.665 155.711C391.987 154.812 393.47 154.973 394.529 156.019C395.549 157.026 395.491 157.777 394.278 158.663C389.613 162.058 384.915 165.395 380.294 168.855C379.261 169.625 378.349 169.772 377.091 169.4H377.098Z" fill="#1C8B7F"/>
<path d="M65.6991 229.248C62.5841 229.248 59.8191 229.861 57.4041 231.086C55.0241 232.276 53.0116 234.008 51.3666 236.283C49.7566 238.558 48.5316 241.306 47.6916 244.526C46.8516 247.746 46.4316 251.368 46.4316 255.393C46.4316 260.818 47.0966 265.456 48.4266 269.306C49.7916 273.121 51.8916 276.043 54.7266 278.073C57.5616 280.068 61.2191 281.066 65.6991 281.066C68.8141 281.066 71.9291 280.716 75.0441 280.016C78.1941 279.316 81.6066 278.318 85.2816 277.023V290.673C81.8866 292.073 78.5441 293.071 75.2541 293.666C71.9641 294.296 68.2716 294.611 64.1766 294.611C56.2666 294.611 49.7566 292.983 44.6466 289.728C39.5716 286.438 35.8091 281.853 33.3591 275.973C30.9091 270.058 29.6841 263.163 29.6841 255.288C29.6841 249.478 30.4716 244.158 32.0466 239.328C33.6216 234.498 35.9316 230.316 38.9766 226.781C42.0216 223.246 45.7841 220.516 50.2641 218.591C54.7441 216.666 59.8891 215.703 65.6991 215.703C69.5141 215.703 73.3291 216.193 77.1441 217.173C80.9941 218.118 84.6691 219.431 88.1691 221.111L82.9191 234.341C80.0491 232.976 77.1616 231.786 74.2566 230.771C71.3516 229.756 68.4991 229.248 65.6991 229.248ZM146.969 272.246C146.969 276.796 145.867 280.751 143.662 284.111C141.457 287.471 138.237 290.061 134.002 291.881C129.802 293.701 124.692 294.611 118.672 294.611C116.012 294.611 113.404 294.436 110.849 294.086C108.329 293.736 105.897 293.228 103.552 292.563C101.242 291.863 99.0366 291.006 96.9366 289.991V274.871C100.577 276.481 104.357 277.933 108.277 279.228C112.197 280.523 116.082 281.171 119.932 281.171C122.592 281.171 124.727 280.821 126.337 280.121C127.982 279.421 129.172 278.458 129.907 277.233C130.642 276.008 131.009 274.608 131.009 273.033C131.009 271.108 130.362 269.463 129.067 268.098C127.772 266.733 125.987 265.456 123.712 264.266C121.472 263.076 118.934 261.798 116.099 260.433C114.314 259.593 112.372 258.578 110.272 257.388C108.172 256.163 106.177 254.676 104.287 252.926C102.397 251.176 100.839 249.058 99.6141 246.573C98.4241 244.053 97.8291 241.043 97.8291 237.543C97.8291 232.958 98.8791 229.038 100.979 225.783C103.079 222.528 106.072 220.043 109.957 218.328C113.877 216.578 118.497 215.703 123.817 215.703C127.807 215.703 131.604 216.176 135.209 217.121C138.849 218.031 142.647 219.361 146.602 221.111L141.352 233.763C137.817 232.328 134.649 231.226 131.849 230.456C129.049 229.651 126.197 229.248 123.292 229.248C121.262 229.248 119.529 229.581 118.094 230.246C116.659 230.876 115.574 231.786 114.839 232.976C114.104 234.131 113.737 235.478 113.737 237.018C113.737 238.838 114.262 240.378 115.312 241.638C116.397 242.863 118.007 244.053 120.142 245.208C122.312 246.363 125.007 247.711 128.227 249.251C132.147 251.106 135.489 253.048 138.254 255.078C141.054 257.073 143.207 259.436 144.712 262.166C146.217 264.861 146.969 268.221 146.969 272.246ZM190.019 250.458H220.469V290.253C216.444 291.583 212.262 292.651 207.922 293.456C203.582 294.226 198.664 294.611 193.169 294.611C185.539 294.611 179.064 293.106 173.744 290.096C168.424 287.086 164.382 282.641 161.617 276.761C158.852 270.881 157.469 263.653 157.469 255.078C157.469 247.028 159.009 240.063 162.089 234.183C165.204 228.303 169.737 223.753 175.687 220.533C181.672 217.313 188.969 215.703 197.579 215.703C201.639 215.703 205.647 216.141 209.602 217.016C213.557 217.891 217.144 219.028 220.364 220.428L214.957 233.448C212.612 232.258 209.934 231.261 206.924 230.456C203.914 229.651 200.764 229.248 197.474 229.248C192.749 229.248 188.637 230.333 185.137 232.503C181.672 234.673 178.977 237.718 177.052 241.638C175.162 245.523 174.217 250.108 174.217 255.393C174.217 260.398 174.899 264.843 176.264 268.728C177.629 272.578 179.782 275.606 182.722 277.811C185.662 279.981 189.494 281.066 194.219 281.066C196.529 281.066 198.472 280.961 200.047 280.751C201.657 280.506 203.162 280.261 204.562 280.016V264.003H190.019V250.458ZM271.394 229.248C268.279 229.248 265.514 229.861 263.099 231.086C260.719 232.276 258.707 234.008 257.062 236.283C255.452 238.558 254.227 241.306 253.387 244.526C252.547 247.746 252.127 251.368 252.127 255.393C252.127 260.818 252.792 265.456 254.122 269.306C255.487 273.121 257.587 276.043 260.422 278.073C263.257 280.068 266.914 281.066 271.394 281.066C274.509 281.066 277.624 280.716 280.739 280.016C283.889 279.316 287.302 278.318 290.977 277.023V290.673C287.582 292.073 284.239 293.071 280.949 293.666C277.659 294.296 273.967 294.611 269.872 294.611C261.962 294.611 255.452 292.983 250.342 289.728C245.267 286.438 241.504 281.853 239.054 275.973C236.604 270.058 235.379 263.163 235.379 255.288C235.379 249.478 236.167 244.158 237.742 239.328C239.317 234.498 241.627 230.316 244.672 226.781C247.717 223.246 251.479 220.516 255.959 218.591C260.439 216.666 265.584 215.703 271.394 215.703C275.209 215.703 279.024 216.193 282.839 217.173C286.689 218.118 290.364 219.431 293.864 221.111L288.614 234.341C285.744 232.976 282.857 231.786 279.952 230.771C277.047 229.756 274.194 229.248 271.394 229.248ZM322.109 293.561H306.097V211.871H322.109V293.561ZM363.007 233.658C370.882 233.658 376.919 235.373 381.119 238.803C385.319 242.233 387.419 247.448 387.419 254.448V293.561H376.237L373.139 285.581H372.719C371.039 287.681 369.324 289.396 367.574 290.726C365.824 292.056 363.812 293.036 361.537 293.666C359.262 294.296 356.497 294.611 353.242 294.611C349.777 294.611 346.662 293.946 343.897 292.616C341.167 291.286 339.014 289.256 337.439 286.526C335.864 283.761 335.077 280.261 335.077 276.026C335.077 269.796 337.264 265.211 341.639 262.271C346.014 259.296 352.577 257.651 361.327 257.336L371.512 257.021V254.448C371.512 251.368 370.707 249.111 369.097 247.676C367.487 246.241 365.247 245.523 362.377 245.523C359.542 245.523 356.759 245.926 354.029 246.731C351.299 247.536 348.569 248.551 345.839 249.776L340.537 238.961C343.652 237.316 347.134 236.021 350.984 235.076C354.869 234.131 358.877 233.658 363.007 233.658ZM371.512 266.366L365.317 266.576C360.137 266.716 356.532 267.643 354.502 269.358C352.507 271.073 351.509 273.331 351.509 276.131C351.509 278.581 352.227 280.331 353.662 281.381C355.097 282.396 356.969 282.903 359.279 282.903C362.709 282.903 365.597 281.888 367.942 279.858C370.322 277.828 371.512 274.941 371.512 271.196V266.366ZM452.204 293.561L447.689 273.033C447.444 271.808 447.042 270.006 446.482 267.626C445.922 265.211 445.309 262.638 444.644 259.908C444.014 257.143 443.419 254.588 442.859 252.243C442.334 249.898 441.949 248.183 441.704 247.098H441.232C440.987 248.183 440.602 249.898 440.077 252.243C439.552 254.588 438.957 257.143 438.292 259.908C437.662 262.673 437.067 265.281 436.507 267.731C435.947 270.146 435.527 271.983 435.247 273.243L430.522 293.561H413.302L396.607 234.866H412.567L419.339 260.853C419.794 262.673 420.232 264.843 420.652 267.363C421.072 269.848 421.439 272.263 421.754 274.608C422.104 276.918 422.367 278.756 422.542 280.121H422.962C423.032 279.106 423.172 277.758 423.382 276.078C423.627 274.398 423.889 272.666 424.169 270.881C424.484 269.061 424.764 267.433 425.009 265.998C425.289 264.528 425.499 263.531 425.639 263.006L432.884 234.866H450.524L457.402 263.006C457.647 264.021 457.962 265.631 458.347 267.836C458.767 270.041 459.134 272.316 459.449 274.661C459.764 276.971 459.939 278.791 459.974 280.121H460.394C460.534 278.931 460.779 277.163 461.129 274.818C461.479 272.473 461.882 270.023 462.337 267.468C462.827 264.878 463.317 262.673 463.807 260.853L470.842 234.866H486.539L469.634 293.561H452.204Z" fill="#1C8B7F"/>
</g>
<defs>
<clipPath id="clip0_52020_158975">
<rect width="512" height="512" fill="white"/>
</clipPath>
</defs>
</svg>
