<svg width="1743" height="461" viewBox="0 0 1743 461" fill="none" xmlns="http://www.w3.org/2000/svg">
<path d="M39.7881 309.302C42.5157 309.302 45.0508 309.186 47.5602 309.373C48.279 309.43 49.1903 310.226 49.569 310.926C51.3018 314.122 52.7844 317.453 54.5236 320.649C56.404 324.108 58.4706 327.465 60.4537 330.866C61.6218 332.868 62.6807 334.948 63.9771 336.867C66.57 340.705 69.105 344.6 72.0059 348.201C76.8578 354.221 81.6263 360.375 87.0751 365.824C93.3197 372.069 100.148 377.762 106.951 383.422C116.976 391.772 128.098 398.504 139.766 404.287C146.088 407.425 152.538 410.358 159.135 412.848C164.744 414.966 170.642 416.346 176.425 418.008C180.192 419.086 183.953 420.19 187.765 421.082C190.21 421.653 192.746 421.814 195.229 422.237C197.803 422.674 200.364 423.2 202.924 423.694C203.322 423.771 203.707 423.964 204.105 423.99C207.558 424.24 211.011 424.612 214.47 424.657C221.96 424.76 229.456 424.766 236.946 424.657C241.226 424.599 245.513 424.4 249.768 423.964C252.753 423.656 255.679 422.789 258.644 422.25C261.821 421.673 265.049 421.345 268.194 420.646C276.037 418.9 283.713 416.615 291.324 413.965C297.915 411.667 304.417 409.209 310.674 406.18C316.585 403.311 322.355 400.109 328.028 396.797C332.489 394.191 336.795 391.29 341.031 388.325C344.188 386.118 347.25 383.724 350.151 381.189C355.497 376.51 360.875 371.844 365.906 366.845C372.125 360.677 377.722 353.958 383.029 346.949C387.028 341.68 390.513 336.116 394.107 330.609C396.071 327.593 397.649 324.32 399.344 321.137C401.378 317.305 403.355 313.441 405.473 309.373C408.457 309.276 411.57 308.968 415.125 309.655C414.336 311.452 413.758 312.928 413.052 314.334C410.979 318.499 408.964 322.696 406.718 326.771C404.17 331.386 401.551 335.981 398.689 340.397C395.884 344.722 392.823 348.9 389.698 353.008C386.508 357.199 383.286 361.39 379.75 365.285C375.649 369.797 371.297 374.103 366.856 378.288C362.268 382.613 357.563 386.836 352.666 390.809C348.816 393.935 344.573 396.579 340.543 399.486C333.118 404.839 325.025 409.087 316.925 413.246C311.034 416.269 304.738 418.547 298.525 420.89C292.711 423.085 286.793 425.016 280.863 426.878C278.097 427.744 275.183 428.155 272.34 428.79C268.631 429.624 264.953 430.606 261.218 431.287C258.632 431.762 255.93 431.64 253.35 432.147C247.965 433.212 242.407 432.551 237.055 433.88C236.374 434.046 235.623 433.931 234.905 433.931C229.976 433.931 225.047 434.046 220.124 433.899C215.657 433.764 211.146 433.681 206.756 432.949C202.443 432.23 198.13 431.826 193.798 431.383C190.538 431.049 187.348 429.997 184.126 429.271C182.843 428.983 181.534 428.777 180.263 428.444C176.001 427.314 171.695 426.326 167.517 424.946C161.709 423.027 155.978 420.87 150.259 418.701C146.023 417.09 141.775 415.454 137.68 413.522C133.842 411.706 130.178 409.537 126.487 407.425C119.165 403.234 112.015 398.761 105.328 393.588C101.464 390.604 97.5876 387.632 93.7626 384.597C92.4148 383.525 91.189 382.299 89.9503 381.099C86.4333 377.704 82.7495 374.463 79.4763 370.849C73.2702 363.995 66.8716 357.289 61.7758 349.497C58.5091 344.504 54.8637 339.755 51.796 334.653C48.6256 329.377 45.8915 323.826 43.0741 318.345C41.8868 316.028 40.9434 313.583 39.9422 311.176C39.7625 310.752 39.8459 310.22 39.7753 309.296L39.7881 309.302Z" fill="#1C8B7F"/>
<path d="M44.0953 141.327C44.2493 137.957 46.0014 135.878 47.2144 133.612C51.1742 126.193 55.4935 118.967 60.4609 112.202C67.4436 102.697 74.8241 93.4877 83.4754 85.3947C87.8653 81.2873 92.069 76.9488 96.7348 73.1751C104.077 67.2385 111.676 61.6036 119.756 56.6619C127.361 52.0089 135.146 47.664 143.322 44.1534C150.619 41.0215 158.18 38.4993 165.644 35.7652C168.557 34.6935 171.497 33.6409 174.487 32.8194C177.209 32.075 180.013 31.645 182.786 31.0994C186.823 30.3036 190.853 29.4372 194.916 28.7826C198.125 28.2692 201.43 28.2884 204.6 27.6338C209.863 26.5492 215.203 27.2423 220.427 26.5877C223.456 26.209 226.53 25.4517 229.463 25.9716C234.739 26.9021 240.033 26.4401 245.29 26.9021C250.405 27.3514 255.449 28.6735 260.571 29.0842C266.956 29.5977 272.951 31.8118 279.227 32.7745C283.059 33.365 286.8 34.7897 290.465 36.1632C297.615 38.8522 304.758 41.5798 311.766 44.6283C324.756 50.2761 336.834 57.5604 348.213 65.9486C354.913 70.8839 361.241 76.2942 367.294 82.0382C375.155 89.5086 382.356 97.5245 389.076 106.035C393.998 112.266 398.286 118.89 402.412 125.628C404.947 129.768 407.181 134.094 409.465 138.387C409.844 139.1 409.78 140.049 409.985 141.282C407.02 141.282 404.479 141.365 401.944 141.243C400.776 141.185 400.076 140.364 399.511 139.222C395.917 131.956 391.733 125.038 386.887 118.524C383.916 114.526 381.252 110.27 378.011 106.51C373.352 101.099 368.391 95.9393 363.379 90.8435C359.945 87.3522 356.313 84.0341 352.571 80.8765C348.463 77.4109 344.196 74.1185 339.851 70.9545C336.501 68.5157 333.041 66.1924 329.428 64.1708C322.542 60.3008 315.597 56.5335 308.538 52.9973C300.15 48.8 291.28 45.7258 282.308 43.056C277.206 41.5413 271.943 40.5658 266.738 39.3978C262.733 38.4993 258.735 37.4917 254.679 36.8755C251.258 36.3557 247.728 36.5611 244.308 36.0348C235.887 34.7384 227.429 35.0144 218.983 35.1941C213.945 35.3032 208.926 36.1182 203.901 36.6252C200.871 36.9333 197.842 37.2221 194.826 37.62C193.144 37.8382 191.476 38.2105 189.82 38.6084C183.967 40.0267 178.062 41.291 172.286 42.9789C166.998 44.5192 161.812 46.4574 156.633 48.3571C147.41 51.7329 138.637 56.0907 130.133 60.9811C119.82 66.9112 110.02 73.5858 101.067 81.4413C96.3305 85.6001 91.5299 89.7268 87.1721 94.2707C80.6195 101.106 74.5417 108.364 68.9646 116.053C63.5222 123.562 58.7088 131.437 54.3062 139.575C53.6708 140.749 52.8942 141.436 51.4181 141.359C49.0884 141.237 46.7459 141.327 44.1017 141.327H44.0953Z" fill="#1C8B7F"/>
<path d="M16.6753 309.436C18.0423 312.543 19.3002 315.489 20.6287 318.409C22.8878 323.363 24.9672 328.421 27.5408 333.208C30.9358 339.511 34.6389 345.659 38.3998 351.762C43.0399 359.291 48.4823 366.254 54.0915 373.089C61.2026 381.76 68.9169 389.782 77.3307 397.227C83.524 402.708 89.8648 407.99 96.5972 412.752C104.774 418.541 113.078 424.175 122.224 428.43C128.898 431.537 135.445 434.938 142.183 437.897C149.185 440.977 156.412 443.545 163.818 445.47C169.248 446.882 174.562 448.666 180.177 449.513C184.907 450.226 189.612 451.349 194.354 452.196C199.899 453.184 205.534 453.011 211.028 453.794C220.328 455.122 229.595 454.218 238.869 454.474C241.051 454.532 243.246 453.89 245.441 453.653C247.661 453.415 249.895 453.281 252.122 453.107C252.731 453.062 253.354 453.094 253.957 452.998C257.442 452.446 260.921 451.881 264.393 451.297C266.171 450.996 267.935 450.585 269.72 450.322C277.999 449.115 286.04 446.908 293.986 444.379C304.633 440.99 315.133 437.21 325.055 431.992C330.067 429.355 335.208 426.929 340.098 424.086C345.111 421.178 349.924 417.931 354.763 414.735C364.152 408.541 372.669 401.238 380.909 393.626C384.709 390.116 388.104 386.162 391.685 382.414C392.391 381.676 393.155 380.996 393.854 380.251C402.082 371.459 409.334 361.903 415.842 351.782C420.546 344.465 424.923 336.963 428.549 329.037C430.436 324.923 432.451 320.86 434.358 316.759C435.076 315.213 435.847 313.647 436.277 312.004C436.899 309.642 438.388 309.006 440.577 309.263C441.379 309.359 442.194 309.398 443.42 309.494C443.214 310.906 443.304 312.286 442.81 313.409C439.762 320.283 436.63 327.111 433.44 333.921C430.353 340.512 426.509 346.679 422.748 352.905C418.384 360.119 413.397 366.883 408.237 373.487C400.888 382.896 392.706 391.624 383.772 399.569C377.251 405.365 370.628 411.096 363.633 416.288C357.131 421.114 350.251 425.517 343.211 429.528C335.233 434.072 327.051 438.353 318.65 442.036C311.583 445.136 304.37 448.05 296.835 450.001C293.344 450.906 289.942 452.151 286.477 453.146C283.775 453.922 281.047 454.628 278.294 455.219C274.373 456.059 270.438 456.849 266.479 457.51C263.584 457.991 260.645 458.184 257.737 458.601C254.066 459.134 250.408 459.782 246.744 460.34C246.038 460.449 245.312 460.385 244.594 460.404C239.068 460.546 233.536 460.815 228.01 460.802C221.354 460.789 214.699 460.539 208.044 460.392C204.687 458.588 200.901 459.981 197.319 458.774C193.642 457.536 189.522 457.664 185.613 457.054C182.051 456.502 178.496 455.861 174.979 455.078C172.341 454.487 169.774 453.582 167.162 452.87C164.55 452.157 161.854 451.708 159.319 450.79C152.606 448.371 145.829 446.182 139.206 443.461C132.178 440.567 125.298 437.416 118.617 433.854C111.467 430.041 104.53 425.857 97.7909 421.313C85.4172 412.963 73.9164 403.613 63.5708 392.863C58.6932 387.792 53.623 382.87 49.1819 377.428C43.7331 370.747 38.6501 363.751 33.811 356.614C29.909 350.851 26.4561 344.761 23.0803 338.664C18.729 330.808 15.0965 322.593 11.8041 314.243C11.265 312.876 11.1046 311.362 10.6553 309.436H16.6753Z" fill="#1C8B7F"/>
<path d="M439.263 141.042C438.557 141.151 437.966 141.292 437.376 141.318C433.448 141.472 433.57 141.414 432.03 137.827C430.49 134.226 428.744 130.709 426.947 127.224C425.054 123.547 423.147 119.857 420.965 116.346C417.821 111.295 414.451 106.379 411.101 101.463C408.816 98.1127 406.551 94.7241 403.977 91.5921C399.78 86.4835 395.486 81.4455 390.968 76.6256C386.72 72.0882 382.317 67.6599 377.664 63.5396C372.414 58.8866 366.895 54.516 361.33 50.2417C356.908 46.8531 352.352 43.6056 347.635 40.6406C342.937 37.6755 337.873 35.2945 333.149 32.3679C326.924 28.5108 320.217 25.6805 313.524 22.8566C307.786 20.4371 301.869 18.409 295.971 16.4002C289.983 14.3593 283.899 12.6265 277.673 11.4071C273.951 10.6819 270.325 9.4689 266.602 8.7886C262.61 8.05696 258.567 7.42801 254.524 7.22905C249.46 6.97876 244.486 5.52831 239.371 6.1701C232.395 4.50145 225.297 5.28444 218.295 5.5604C214.367 5.71443 210.311 5.62458 206.467 6.33697C201.955 7.17771 197.392 7.13279 192.919 7.92219C189.164 8.58965 185.48 9.62293 181.758 10.438C179.011 11.0349 176.207 11.4071 173.485 12.0938C166.978 13.7368 160.451 15.3028 154.212 17.8892C150.683 19.3524 146.915 20.2253 143.379 21.6821C138.251 23.7936 133.194 26.0848 128.194 28.4979C118.51 33.1701 109.146 38.4906 100.373 44.6774C92.6521 50.1198 85.2779 56.0884 78.0322 62.1597C73.2059 66.203 68.7647 70.734 64.3685 75.2522C61.1852 78.5318 58.2972 82.1065 55.3834 85.6364C51.6803 90.116 47.9259 94.5636 44.4923 99.2423C41.5657 103.228 39.005 107.489 36.3673 111.68C34.4291 114.754 32.4652 117.835 30.7773 121.05C27.6389 127.032 24.6546 133.097 21.7152 139.181C21.2403 140.163 20.9258 141.164 19.7514 141.222C18.333 141.299 16.7799 141.466 15.522 140.978C14.3603 140.529 14.4694 138.975 14.9379 137.955C16.9082 133.655 18.8657 129.342 21.0734 125.164C25.2066 117.36 29.5065 109.639 34.5061 102.361C38.344 96.7714 42.4835 91.3868 46.5909 85.9893C52.8291 77.7937 59.9209 70.3425 67.4683 63.3791C74.1237 57.2372 81.0421 51.3456 88.166 45.7492C96.8879 38.8949 106.207 32.8557 116.052 27.7085C121.937 24.6279 127.848 21.5666 133.913 18.8583C140.613 15.8675 147.435 13.1463 154.476 11.0092C157.068 10.2198 159.565 9.11591 162.164 8.33935C164.674 7.59487 167.266 7.11995 169.801 6.47174C173.094 5.631 176.367 4.71966 179.653 3.87892C180.237 3.73131 180.879 3.81474 181.476 3.70564C185.724 2.94191 189.973 2.15893 194.222 1.38236C194.523 1.3246 194.825 1.28609 195.126 1.26042C199.17 0.952363 203.207 0.464604 207.256 0.387589C219.046 0.162963 230.836 0.0666949 242.632 0.00251604C245.802 -0.0167376 248.992 0.0731128 252.143 0.419679C255.217 0.759826 258.24 1.55564 261.301 2.0434C265.191 2.65952 269.105 3.13444 273.001 3.73131C274.779 4.00728 276.55 4.3731 278.302 4.79668C282.602 5.84921 286.902 6.91458 291.177 8.06338C293.108 8.58323 295.002 9.26994 296.882 9.95666C302.928 12.1644 309.044 14.2053 314.974 16.689C321.957 19.6156 328.952 22.5999 335.608 26.1747C344.368 30.879 352.814 36.148 360.939 41.9306C370.925 49.0416 380.231 56.942 389.043 65.4264C392.682 68.9242 396.09 72.6658 399.472 76.4267C404.747 82.2862 409.657 88.4089 414.291 94.7497C418.058 99.8969 421.357 105.384 424.88 110.711C429.674 117.95 433.307 125.819 437.138 133.572C438.031 135.381 438.73 137.287 439.404 139.194C439.584 139.701 439.333 140.368 439.269 141.055L439.263 141.042Z" fill="#1C8B7F"/>
<path d="M175.477 392.642C174.213 391.834 173.302 391.25 172.435 390.691C177.031 376.521 181.568 362.543 186.221 348.205C187.607 348.564 188.794 348.873 189.911 349.161C190.425 352.428 188.692 354.777 187.915 357.338C185.624 364.898 183.185 372.407 180.785 379.935C179.63 383.555 178.487 387.181 177.217 390.762C176.979 391.436 176.183 391.904 175.477 392.642Z" fill="#1C8B7F"/>
<path d="M281.058 391.031C280.519 391.358 280.005 391.666 279.498 391.974C278.215 392.757 277.438 392.398 276.983 390.973C275.949 387.732 274.845 384.516 273.787 381.282C271.527 374.408 269.294 367.522 267.016 360.655C265.957 357.452 264.821 354.275 263.723 351.086C263.3 349.847 263.826 349.173 265.655 348.602C267.106 348.153 268.01 348.64 268.447 350.046C270.083 355.315 271.675 360.603 273.389 365.847C275.898 373.548 278.516 381.211 281.039 388.906C281.244 389.542 281.064 390.305 281.064 391.031H281.058Z" fill="#1C8B7F"/>
<path d="M171.758 342.51C171.206 343.98 170.744 345.649 169.974 347.157C165.802 355.333 161.534 363.465 157.331 371.628C155.63 374.933 154.019 378.284 152.331 381.685C151.15 382.243 149.77 382.218 149.154 381.011C148.724 380.17 148.801 378.765 149.206 377.854C150.727 374.446 152.44 371.121 154.135 367.79C157.183 361.79 160.27 355.802 163.338 349.807C164.673 347.202 165.995 344.583 167.355 341.99C168.222 340.335 169.294 340.418 171.758 342.504V342.51Z" fill="#1C8B7F"/>
<path d="M302.642 330.594C306.486 335.741 310.273 340.734 313.969 345.785C318.494 351.966 322.955 358.191 327.428 364.404C328.39 365.745 328.211 366.804 326.94 367.709C325.419 368.787 325.04 368.742 323.795 367.048C319.707 361.471 315.67 355.861 311.582 350.291C307.686 344.977 303.752 339.688 299.824 334.387C298.56 332.68 299.189 330.979 301.307 330.556C301.788 330.459 302.315 330.588 302.642 330.601V330.594Z" fill="#1C8B7F"/>
<path d="M328.248 94.3855C327.683 95.4059 327.368 96.1633 326.9 96.8115C323.736 101.156 320.527 105.469 317.356 109.801C313.871 114.563 310.419 119.351 306.947 124.12C305.875 125.596 304.809 127.078 303.686 128.516C302.64 129.864 301.562 130.005 300.298 129.061C298.943 128.054 298.963 127.572 300.189 125.84C303.41 121.309 306.549 116.713 309.809 112.208C314.359 105.925 318.987 99.6931 323.588 93.4421C324.333 92.4281 325.379 91.9082 326.515 92.4986C327.227 92.8709 327.683 93.7309 328.248 94.3662V94.3855Z" fill="#1C8B7F"/>
<path d="M282.302 342.142C282.899 341.757 283.219 341.5 283.572 341.327C285.427 340.435 285.722 340.499 286.647 342.296C288.546 345.993 290.388 349.715 292.282 353.418C296.017 360.702 299.778 367.974 303.519 375.258C304.379 376.933 305.201 378.621 306.086 380.405C305.291 380.912 304.822 381.304 304.283 381.541C302.557 382.311 301.934 382.106 301.093 380.482C299.701 377.787 298.353 375.078 296.967 372.377C294.252 367.069 291.518 361.774 288.803 356.473C286.833 352.629 284.85 348.791 282.956 344.914C282.539 344.067 282.494 343.04 282.295 342.155L282.302 342.142Z" fill="#1C8B7F"/>
<path d="M125.515 94.5772C127.293 91.6314 128.846 91.4902 130.797 94.1087C133.352 97.5294 135.765 101.053 138.287 104.499C141.04 108.26 143.896 111.95 146.624 115.731C149.043 119.087 151.379 122.508 153.683 125.941C154.755 127.533 154.582 128.964 153.42 129.651C152.169 130.389 151.463 130.113 150.211 128.387C144.673 120.743 139.147 113.093 133.589 105.462C130.919 101.791 128.185 98.1648 125.522 94.5772H125.515Z" fill="#1C8B7F"/>
<path d="M306.203 79.2846C305.061 81.717 304.098 83.899 303.033 86.0234C299.734 92.6017 296.416 99.1736 293.059 105.726C291.044 109.667 288.997 113.595 286.86 117.477C286.468 118.183 285.647 118.986 284.922 119.108C282.983 119.428 281.963 117.837 282.823 115.956C283.741 113.948 284.748 111.971 285.756 110.007C289.748 102.196 293.746 94.3987 297.757 86.601C298.726 84.7205 299.702 82.8465 300.767 81.0174C302.32 78.354 302.359 78.3733 306.203 79.2846Z" fill="#1C8B7F"/>
<path d="M155.347 332.416C146.413 344.347 137.954 356.676 128.815 368.607C127.615 368.016 126.729 367.573 125.625 367.028C125.715 366.437 125.625 365.654 125.946 365.128C126.96 363.485 128.096 361.906 129.251 360.353C132.871 355.469 136.516 350.604 140.155 345.74C142.164 343.051 144.218 340.394 146.201 337.692C147.388 336.074 148.492 334.399 149.596 332.724C151.432 329.945 152.523 329.817 155.347 332.416Z" fill="#1C8B7F"/>
<path d="M205.212 353.477C205.95 353.419 206.65 353.304 207.343 353.31C209.756 353.342 209.994 353.734 209.172 356.006C208.967 356.571 208.826 357.167 208.755 357.764C208.241 362.09 208.036 366.473 207.163 370.722C206.412 374.367 206.027 378.058 205.276 381.665C204.532 385.239 203.98 388.782 203.717 392.408C203.589 394.192 203.011 395.944 202.581 397.985H199.077C198.743 395.611 198.692 393.268 199.231 390.823C199.86 387.973 200.02 385.021 200.508 382.139C200.957 379.476 201.599 376.845 202.106 374.188C202.465 372.301 202.812 370.401 203.043 368.495C203.351 365.973 203.454 363.431 203.807 360.915C204.14 358.541 204.686 356.198 205.212 353.464V353.477Z" fill="#1C8B7F"/>
<path d="M176.847 68.4251C177.995 72.3913 178.862 75.6837 179.914 78.9247C181.217 82.9231 182.732 86.8444 184.047 90.8363C185.966 96.6573 187.783 102.504 189.644 108.338C190.273 110.308 190.023 111.207 188.707 111.65C187.211 112.157 186.108 111.592 185.504 109.763C183.656 104.141 181.942 98.4736 180.075 92.8579C177.617 85.4517 175.069 78.0776 172.547 70.6906C172.219 69.7215 172.502 68.9642 173.419 68.7524C174.543 68.4892 175.73 68.5149 176.847 68.4251Z" fill="#1C8B7F"/>
<path d="M149.067 78.9415C150.036 78.8003 151.018 78.6591 152.077 78.5051C156.21 86.6814 160.272 94.768 164.386 102.822C166.267 106.5 168.282 110.107 170.201 113.765C171.356 115.973 171.324 115.992 170.887 118.963H167.614C163.77 111.249 159.951 103.477 156.036 95.7499C154.079 91.8863 151.923 88.1255 149.875 84.3004C149.002 82.6703 148.271 81.0016 149.067 78.9415Z" fill="#1C8B7F"/>
<path d="M108.364 351.662C105.239 349.647 105.104 348.748 107.267 346.585C115.693 338.172 124.114 329.758 132.54 321.35C133.619 320.272 134.697 319.194 135.814 318.154C136.744 317.294 138.169 317.403 139.055 318.302C140.094 319.354 139.799 320.253 138.862 321.19C135.563 324.508 132.297 327.864 128.991 331.182C124.755 335.438 120.507 339.667 116.245 343.896C113.659 346.463 111.04 349.011 108.351 351.656L108.364 351.662Z" fill="#1C8B7F"/>
<path d="M277.248 68.4865C278.185 68.4095 278.589 68.3196 278.987 68.3517C280.964 68.4993 281.644 69.3208 281.073 71.0922C279.013 77.4908 276.901 83.8702 274.802 90.256C272.864 96.154 270.92 102.046 269.007 107.95C268.667 108.996 268.455 110.087 268.128 111.377C267.717 111.48 267.146 111.737 266.581 111.743C264.636 111.762 263.892 111.018 264.271 109.131C264.707 106.968 265.342 104.831 266.016 102.726C267.383 98.458 268.808 94.2158 270.246 89.9736C271.946 84.9548 273.711 79.9617 275.386 74.9301C276.08 72.8443 276.612 70.7071 277.248 68.4929V68.4865Z" fill="#1C8B7F"/>
<path d="M316.952 143.358C314.045 141.285 313.853 140.618 315.881 138.442C318.801 135.31 321.888 132.345 324.898 129.303C329.41 124.759 333.902 120.196 338.433 115.671C340.307 113.797 342.245 111.994 344.158 110.171C345.159 109.215 346.192 108.9 347.418 109.869C348.67 110.851 348.856 111.474 347.79 112.629C346.269 114.279 344.652 115.838 343.06 117.417C338.285 122.16 333.498 126.89 328.723 131.626C324.827 135.49 320.944 139.366 316.946 143.352L316.952 143.358Z" fill="#1C8B7F"/>
<path d="M244.665 353.405H248.728C249.357 357.66 249.768 361.947 250.679 366.125C251.237 368.68 250.859 371.362 252.091 373.852C252.771 375.226 252.668 376.991 252.899 378.582C253.304 381.368 253.67 384.16 254.093 386.939C254.485 389.531 254.96 392.105 255.338 394.698C255.486 395.686 255.467 396.694 255.544 398.042C254.254 398.125 253.188 398.196 252.238 398.253C250.942 397.104 250.672 395.821 250.538 394.319C250.275 391.412 249.684 388.537 249.267 385.649C248.863 382.87 248.766 380.014 248.054 377.318C246.918 373.025 247.143 368.564 245.865 364.258C244.884 360.94 245.05 357.281 244.672 353.411L244.665 353.405Z" fill="#1C8B7F"/>
<path d="M348.741 348.492C347.983 349.409 347.367 350.314 346.591 351.059C345.904 351.713 345.198 351.559 344.479 350.834C339.621 345.905 334.737 341.002 329.834 336.112C325.508 331.792 321.15 327.505 316.805 323.199C316.298 322.698 315.759 322.223 315.304 321.671C314.257 320.413 314.347 319.29 315.515 318.231C316.568 317.275 317.139 317.391 318.5 318.738C327.53 327.717 336.56 336.696 345.602 345.661C346.527 346.579 347.534 347.407 348.734 348.485L348.741 348.492Z" fill="#1C8B7F"/>
<path d="M209.499 106.268C209.089 106.351 208.594 106.396 208.139 106.55C204.898 107.622 205.039 107.615 204.75 104.13C204.525 101.461 203.864 98.8228 203.454 96.1658C203.036 93.4767 202.741 90.7748 202.305 88.0921C201.849 85.3196 201.259 82.5727 200.777 79.8066C200.379 77.5219 200.007 75.2243 199.718 72.9202C199.308 69.6279 198.987 66.3291 198.595 62.7351H202.793C203.351 66.9452 203.852 71.1232 204.474 75.282C204.878 77.9647 205.495 80.6089 205.957 83.2787C206.438 86.0384 206.836 88.8109 207.285 91.577C207.722 94.2533 208.196 96.9295 208.607 99.6122C208.922 101.672 209.166 103.745 209.506 106.268H209.499Z" fill="#1C8B7F"/>
<path d="M139.655 139.655C139.931 141.677 138.455 142.312 136.844 143.275C136.19 142.614 135.509 141.914 134.823 141.234C125.491 131.973 116.159 122.712 106.821 113.451C105.602 112.238 105.493 111.198 106.545 110.139C107.713 108.958 108.516 108.939 109.934 110.338C113.984 114.356 117.976 118.431 122.006 122.474C127.185 127.673 132.371 132.871 137.582 138.044C138.205 138.667 138.975 139.142 139.662 139.662L139.655 139.655Z" fill="#1C8B7F"/>
<path d="M248.61 107.535C247.089 106.957 246.082 106.572 244.965 106.149C244.843 104.178 245.003 102.279 245.446 100.231C246.409 95.8031 246.653 91.2271 247.339 86.7346C247.731 84.1803 248.45 81.6773 248.944 79.1358C249.329 77.1591 249.643 75.1632 249.894 73.1608C250.183 70.8504 250.452 68.5271 250.58 66.2038C250.767 62.7253 251.556 62.1156 255.375 62.8858C255.426 63.3543 255.574 63.8677 255.516 64.349C255.067 67.9559 254.649 71.5756 254.059 75.1568C253.655 77.6084 252.923 80.0087 252.474 82.4539C251.986 85.1173 251.659 87.8128 251.241 90.4891C250.792 93.3643 250.311 96.2267 249.868 99.1019C249.457 101.759 249.072 104.422 248.61 107.535Z" fill="#1C8B7F"/>
<path d="M225.325 60.2263C226.596 60.1685 227.578 60.1236 228.528 60.0851C229.215 62.5688 229.317 102.116 228.669 105.37H225.332V60.2263H225.325Z" fill="#1C8B7F"/>
<path d="M225.446 355.23H228.565C229.181 357.521 229.341 395.727 228.751 399.635H225.619C225.022 397.383 224.849 359.504 225.446 355.23Z" fill="#1C8B7F"/>
<path d="M119.341 307.81V311.057C114.816 314.266 110.24 317.456 105.735 320.729C101.544 323.778 97.4044 326.903 93.2648 330.022C91.5256 331.331 90.0045 331.505 89.2857 330.356C88.5284 329.143 89.0675 327.635 90.5757 326.518C96.3454 322.244 102.077 317.918 107.872 313.682C110.49 311.77 113.282 310.095 115.881 308.163C116.94 307.38 117.877 307.329 119.328 307.81H119.341Z" fill="#1C8B7F"/>
<path d="M337.539 308.306C338.944 309.096 340.324 309.712 341.518 310.572C349.02 315.995 356.478 321.476 363.955 326.925C365.752 328.234 366.008 328.985 364.969 330.243C363.987 331.424 362.607 331.443 361.227 330.422C354.61 325.545 347.981 320.693 341.351 315.822C340.285 315.039 339.265 314.179 338.161 313.454C335.395 311.637 335.382 311.663 337.532 308.3L337.539 308.306Z" fill="#1C8B7F"/>
<path d="M107.354 140.623C107.848 142.01 107.367 143.12 106.218 143.794C105.127 144.436 104.145 143.89 103.176 143.165C99.4597 140.373 95.6796 137.652 91.9316 134.899C91.1935 134.36 90.449 133.82 89.7752 133.198C88.8767 132.37 88.6777 130.663 89.4222 129.918C90.3207 129.013 91.2577 128.943 92.3872 129.79C96.5139 132.896 100.711 135.913 104.889 138.955C105.698 139.545 106.545 140.084 107.354 140.63V140.623Z" fill="#1C8B7F"/>
<path d="M347.414 143.8C347.125 142.831 346.849 141.875 346.515 140.758C350.424 137.915 354.255 135.13 358.08 132.331C359.062 131.613 359.974 130.791 360.981 130.111C362.303 129.212 363.786 129.373 364.845 130.419C365.865 131.426 365.807 132.177 364.594 133.063C359.929 136.458 355.231 139.795 350.61 143.255C349.577 144.025 348.665 144.172 347.407 143.8H347.414Z" fill="#1C8B7F"/>
<path d="M422.52 267.959L418.005 247.432C417.76 246.207 417.357 244.404 416.797 242.024C416.237 239.609 415.625 237.037 414.96 234.307C414.33 231.542 413.735 228.987 413.175 226.642C412.65 224.297 412.265 222.582 412.02 221.497H411.547C411.302 222.582 410.917 224.297 410.392 226.642C409.867 228.987 409.272 231.542 408.607 234.307C407.977 237.072 407.382 239.679 406.822 242.129C406.262 244.544 405.842 246.382 405.562 247.642L400.837 267.959H383.617L366.922 209.264H382.882L389.655 235.252C390.11 237.072 390.547 239.242 390.967 241.762C391.387 244.247 391.755 246.662 392.07 249.007C392.42 251.317 392.682 253.154 392.857 254.519H393.277C393.347 253.504 393.487 252.157 393.697 250.477C393.942 248.797 394.205 247.064 394.485 245.279C394.8 243.459 395.08 241.832 395.325 240.397C395.605 238.927 395.815 237.929 395.955 237.404L403.2 209.264H420.84L427.717 237.404C427.962 238.419 428.277 240.029 428.662 242.234C429.082 244.439 429.45 246.714 429.765 249.059C430.08 251.369 430.255 253.189 430.29 254.519H430.71C430.85 253.329 431.095 251.562 431.445 249.217C431.795 246.872 432.197 244.422 432.652 241.867C433.142 239.277 433.632 237.072 434.122 235.252L441.157 209.264H456.855L439.95 267.959H422.52Z" fill="#1C8B7F"/>
<path d="M333.322 208.057C341.197 208.057 347.235 209.772 351.435 213.202C355.635 216.632 357.735 221.847 357.735 228.847V267.959H346.552L343.455 259.979H343.035C341.355 262.079 339.64 263.794 337.89 265.124C336.14 266.454 334.127 267.434 331.852 268.064C329.577 268.694 326.812 269.009 323.557 269.009C320.092 269.009 316.977 268.344 314.212 267.014C311.482 265.684 309.33 263.654 307.755 260.924C306.18 258.159 305.392 254.659 305.392 250.424C305.392 244.194 307.58 239.609 311.955 236.669C316.33 233.694 322.892 232.049 331.642 231.734L341.827 231.419V228.847C341.827 225.767 341.022 223.509 339.412 222.074C337.802 220.639 335.562 219.922 332.692 219.922C329.857 219.922 327.075 220.324 324.345 221.129C321.615 221.934 318.885 222.949 316.155 224.174L310.852 213.359C313.967 211.714 317.45 210.419 321.3 209.474C325.185 208.529 329.192 208.057 333.322 208.057ZM341.827 240.764L335.632 240.974C330.452 241.114 326.847 242.042 324.817 243.757C322.822 245.472 321.825 247.729 321.825 250.529C321.825 252.979 322.542 254.729 323.977 255.779C325.412 256.794 327.285 257.302 329.595 257.302C333.025 257.302 335.912 256.287 338.257 254.257C340.637 252.227 341.827 249.339 341.827 245.594V240.764Z" fill="#1C8B7F"/>
<path d="M292.425 267.959H276.412V186.269H292.425V267.959Z" fill="#1C8B7F"/>
<path d="M241.71 203.647C238.595 203.647 235.83 204.259 233.415 205.484C231.035 206.674 229.022 208.407 227.377 210.682C225.767 212.957 224.542 215.704 223.702 218.924C222.862 222.144 222.442 225.767 222.442 229.792C222.442 235.217 223.108 239.854 224.438 243.704C225.803 247.519 227.902 250.442 230.737 252.472C233.572 254.467 237.23 255.464 241.71 255.464C244.825 255.464 247.94 255.114 251.055 254.414C254.205 253.714 257.618 252.717 261.293 251.422V265.072C257.898 266.472 254.555 267.469 251.265 268.064C247.975 268.694 244.282 269.009 240.188 269.009C232.278 269.009 225.768 267.382 220.658 264.127C215.583 260.837 211.82 256.252 209.37 250.372C206.92 244.457 205.695 237.562 205.695 229.687C205.695 223.877 206.482 218.557 208.057 213.727C209.632 208.897 211.942 204.714 214.987 201.179C218.032 197.644 221.795 194.914 226.275 192.989C230.755 191.064 235.9 190.102 241.71 190.102C245.525 190.102 249.34 190.592 253.155 191.572C257.005 192.517 260.68 193.829 264.18 195.509L258.93 208.739C256.06 207.374 253.173 206.184 250.268 205.169C247.363 204.154 244.51 203.647 241.71 203.647Z" fill="#1C8B7F"/>
<path d="M160.335 224.857H190.785V264.652C186.76 265.982 182.577 267.049 178.237 267.854C173.897 268.624 168.98 269.009 163.485 269.009C155.855 269.009 149.38 267.504 144.06 264.494C138.74 261.484 134.697 257.039 131.932 251.159C129.167 245.279 127.785 238.052 127.785 229.477C127.785 221.427 129.325 214.462 132.405 208.582C135.52 202.702 140.052 198.152 146.002 194.932C151.987 191.712 159.285 190.102 167.895 190.102C171.955 190.102 175.962 190.539 179.917 191.414C183.872 192.289 187.46 193.427 190.68 194.827L185.272 207.847C182.927 206.657 180.25 205.659 177.24 204.854C174.23 204.049 171.08 203.647 167.79 203.647C163.065 203.647 158.952 204.732 155.452 206.902C151.987 209.072 149.292 212.117 147.367 216.037C145.477 219.922 144.532 224.507 144.532 229.792C144.532 234.797 145.215 239.242 146.58 243.127C147.945 246.977 150.097 250.004 153.037 252.209C155.977 254.379 159.81 255.464 164.535 255.464C166.845 255.464 168.787 255.359 170.362 255.149C171.972 254.904 173.477 254.659 174.877 254.414V238.402H160.335V224.857Z" fill="#1C8B7F"/>
<path d="M117.285 246.644C117.285 251.194 116.182 255.149 113.977 258.509C111.772 261.869 108.552 264.459 104.317 266.279C100.117 268.099 95.0075 269.009 88.9875 269.009C86.3275 269.009 83.72 268.834 81.165 268.484C78.645 268.134 76.2125 267.627 73.8675 266.962C71.5575 266.262 69.3525 265.404 67.2525 264.389V249.269C70.8925 250.879 74.6725 252.332 78.5925 253.627C82.5125 254.922 86.3975 255.569 90.2475 255.569C92.9075 255.569 95.0425 255.219 96.6525 254.519C98.2975 253.819 99.4875 252.857 100.222 251.632C100.957 250.407 101.325 249.007 101.325 247.432C101.325 245.507 100.677 243.862 99.3825 242.497C98.0875 241.132 96.3025 239.854 94.0275 238.664C91.7875 237.474 89.25 236.197 86.415 234.832C84.63 233.992 82.6875 232.977 80.5875 231.787C78.4875 230.562 76.4925 229.074 74.6025 227.324C72.7125 225.574 71.155 223.457 69.93 220.972C68.74 218.452 68.145 215.442 68.145 211.942C68.145 207.357 69.195 203.437 71.295 200.182C73.395 196.927 76.3875 194.442 80.2725 192.727C84.1925 190.977 88.8125 190.102 94.1325 190.102C98.1225 190.102 101.92 190.574 105.525 191.519C109.165 192.429 112.962 193.759 116.917 195.509L111.667 208.162C108.132 206.727 104.965 205.624 102.165 204.854C99.365 204.049 96.5125 203.647 93.6075 203.647C91.5775 203.647 89.845 203.979 88.41 204.644C86.975 205.274 85.89 206.184 85.155 207.374C84.42 208.529 84.0525 209.877 84.0525 211.417C84.0525 213.237 84.5775 214.777 85.6275 216.037C86.7125 217.262 88.3225 218.452 90.4575 219.607C92.6275 220.762 95.3225 222.109 98.5425 223.649C102.462 225.504 105.805 227.447 108.57 229.477C111.37 231.472 113.522 233.834 115.027 236.564C116.532 239.259 117.285 242.619 117.285 246.644Z" fill="#1C8B7F"/>
<path d="M36.015 203.647C32.9 203.647 30.135 204.259 27.72 205.484C25.34 206.674 23.3275 208.407 21.6825 210.682C20.0725 212.957 18.8475 215.704 18.0075 218.924C17.1675 222.144 16.7475 225.767 16.7475 229.792C16.7475 235.217 17.4125 239.854 18.7425 243.704C20.1075 247.519 22.2075 250.442 25.0425 252.472C27.8775 254.467 31.535 255.464 36.015 255.464C39.13 255.464 42.245 255.114 45.36 254.414C48.51 253.714 51.9225 252.717 55.5975 251.422V265.072C52.2025 266.472 48.86 267.469 45.57 268.064C42.28 268.694 38.5875 269.009 34.4925 269.009C26.5825 269.009 20.0725 267.382 14.9625 264.127C9.8875 260.837 6.125 256.252 3.675 250.372C1.225 244.457 0 237.562 0 229.687C0 223.877 0.7875 218.557 2.3625 213.727C3.9375 208.897 6.2475 204.714 9.2925 201.179C12.3375 197.644 16.1 194.914 20.58 192.989C25.06 191.064 30.205 190.102 36.015 190.102C39.83 190.102 43.645 190.592 47.46 191.572C51.31 192.517 54.985 193.829 58.485 195.509L53.235 208.739C50.365 207.374 47.4775 206.184 44.5725 205.169C41.6675 204.154 38.815 203.647 36.015 203.647Z" fill="#1C8B7F"/>
<path d="M1652.13 336.306L1640.27 282.387C1639.63 279.169 1638.57 274.435 1637.1 268.183C1635.63 261.84 1634.02 255.083 1632.27 247.912C1630.62 240.649 1629.05 233.938 1627.58 227.779C1626.2 221.619 1625.19 217.115 1624.55 214.265H1623.31C1622.66 217.115 1621.65 221.619 1620.27 227.779C1618.89 233.938 1617.33 240.649 1615.59 247.912C1613.93 255.175 1612.37 262.024 1610.9 268.459C1609.43 274.802 1608.32 279.629 1607.59 282.939L1595.18 336.306H1549.94L1506.09 182.134H1548.01L1565.8 250.394C1567 255.175 1568.15 260.875 1569.25 267.494C1570.35 274.021 1571.32 280.364 1572.15 286.524C1573.07 292.591 1573.76 297.418 1574.22 301.003H1575.32C1575.5 298.337 1575.87 294.798 1576.42 290.385C1577.07 285.972 1577.75 281.422 1578.49 276.733C1579.32 271.953 1580.05 267.678 1580.7 263.908C1581.43 260.047 1581.98 257.427 1582.35 256.048L1601.38 182.134H1647.72L1665.78 256.048C1666.42 258.714 1667.25 262.943 1668.26 268.735C1669.37 274.527 1670.33 280.502 1671.16 286.662C1671.99 292.729 1672.45 297.51 1672.54 301.003H1673.64C1674.01 297.878 1674.65 293.235 1675.57 287.076C1676.49 280.916 1677.55 274.481 1678.74 267.77C1680.03 260.967 1681.32 255.175 1682.6 250.394L1701.08 182.134H1742.31L1697.91 336.306H1652.13Z" fill="#1C8B7F"/>
<path d="M1417.84 178.962C1438.52 178.962 1454.38 183.467 1465.41 192.477C1476.44 201.486 1481.96 215.184 1481.96 233.571V336.306H1452.59L1444.45 315.345H1443.35C1438.94 320.861 1434.43 325.366 1429.83 328.859C1425.24 332.352 1419.95 334.927 1413.98 336.581C1408 338.236 1400.74 339.064 1392.19 339.064C1383.09 339.064 1374.9 337.317 1367.64 333.823C1360.47 330.33 1354.82 324.998 1350.68 317.827C1346.54 310.564 1344.47 301.371 1344.47 290.247C1344.47 273.883 1350.22 261.84 1361.71 254.118C1373.2 246.303 1390.44 241.982 1413.42 241.155L1440.18 240.328V233.571C1440.18 225.48 1438.06 219.551 1433.83 215.781C1429.6 212.012 1423.72 210.128 1416.18 210.128C1408.74 210.128 1401.43 211.185 1394.26 213.299C1387.09 215.414 1379.92 218.08 1372.74 221.297L1358.82 192.89C1367 188.569 1376.15 185.168 1386.26 182.686C1396.46 180.203 1406.99 178.962 1417.84 178.962ZM1440.18 264.874L1423.91 265.425C1410.3 265.793 1400.83 268.229 1395.5 272.734C1390.26 277.239 1387.64 283.168 1387.64 290.523C1387.64 296.958 1389.52 301.555 1393.29 304.313C1397.06 306.979 1401.98 308.312 1408.05 308.312C1417.06 308.312 1424.64 305.646 1430.8 300.314C1437.05 294.982 1440.18 287.397 1440.18 277.56V264.874Z" fill="#1C8B7F"/>
<path d="M1310.41 336.306H1268.35V121.734H1310.41V336.306Z" fill="#1C8B7F"/>
<path d="M1177.2 167.379C1169.02 167.379 1161.76 168.988 1155.42 172.205C1149.16 175.331 1143.88 179.882 1139.56 185.857C1135.33 191.833 1132.11 199.05 1129.9 207.508C1127.7 215.965 1126.59 225.481 1126.59 236.053C1126.59 250.302 1128.34 262.484 1131.83 272.596C1135.42 282.617 1140.94 290.293 1148.38 295.625C1155.83 300.866 1165.44 303.486 1177.2 303.486C1185.39 303.486 1193.57 302.566 1201.75 300.728C1210.02 298.889 1218.99 296.269 1228.64 292.867V328.721C1219.72 332.399 1210.94 335.019 1202.3 336.581C1193.66 338.236 1183.96 339.064 1173.2 339.064C1152.43 339.064 1135.33 334.789 1121.91 326.239C1108.58 317.597 1098.69 305.554 1092.26 290.109C1085.82 274.573 1082.6 256.462 1082.6 235.777C1082.6 220.516 1084.67 206.542 1088.81 193.856C1092.95 181.169 1099.01 170.183 1107.01 160.898C1115.01 151.612 1124.89 144.442 1136.66 139.385C1148.43 134.329 1161.94 131.801 1177.2 131.801C1187.22 131.801 1197.24 133.088 1207.27 135.662C1217.38 138.144 1227.03 141.592 1236.22 146.005L1222.43 180.755C1214.9 177.17 1207.31 174.044 1199.68 171.378C1192.05 168.712 1184.56 167.379 1177.2 167.379Z" fill="#1C8B7F"/>
<path d="M963.459 223.09H1043.44V327.618C1032.87 331.111 1021.88 333.915 1010.48 336.03C999.083 338.052 986.167 339.064 971.733 339.064C951.692 339.064 934.684 335.111 920.71 327.204C906.736 319.298 896.118 307.623 888.856 292.178C881.593 276.733 877.961 257.749 877.961 235.225C877.961 214.081 882.006 195.786 890.097 180.341C898.279 164.897 910.184 152.945 925.813 144.488C941.533 136.03 960.701 131.801 983.317 131.801C993.981 131.801 1004.51 132.95 1014.9 135.248C1025.28 137.547 1034.71 140.534 1043.16 144.212L1028.96 178.411C1022.8 175.285 1015.77 172.665 1007.86 170.551C999.956 168.436 991.683 167.379 983.041 167.379C970.63 167.379 959.828 170.229 950.634 175.929C941.533 181.629 934.454 189.627 929.398 199.923C924.434 210.128 921.951 222.171 921.951 236.053C921.951 249.199 923.744 260.875 927.329 271.079C930.915 281.192 936.569 289.144 944.291 294.936C952.013 300.636 962.08 303.486 974.491 303.486C980.559 303.486 985.661 303.21 989.798 302.658C994.027 302.015 997.98 301.371 1001.66 300.728V258.668H963.459V223.09Z" fill="#1C8B7F"/>
<path d="M850.382 280.319C850.382 292.27 847.486 302.658 841.694 311.484C835.902 320.309 827.445 327.112 816.321 331.893C805.289 336.673 791.867 339.064 776.054 339.064C769.067 339.064 762.218 338.604 755.507 337.685C748.888 336.765 742.499 335.432 736.339 333.686C730.272 331.847 724.48 329.595 718.964 326.929V287.213C728.525 291.442 738.454 295.258 748.75 298.659C759.047 302.061 769.251 303.761 779.364 303.761C786.351 303.761 791.959 302.842 796.187 301.003C800.508 299.165 803.634 296.637 805.565 293.419C807.495 290.201 808.461 286.524 808.461 282.387C808.461 277.331 806.76 273.01 803.358 269.424C799.957 265.839 795.268 262.484 789.292 259.358C783.409 256.232 776.744 252.877 769.297 249.291C764.608 247.085 759.506 244.419 753.99 241.293C748.474 238.075 743.234 234.168 738.27 229.572C733.305 224.975 729.214 219.413 725.997 212.886C722.871 206.267 721.308 198.36 721.308 189.167C721.308 177.124 724.066 166.827 729.582 158.278C735.098 149.728 742.958 143.201 753.163 138.696C763.459 134.099 775.594 131.801 789.568 131.801C800.049 131.801 810.023 133.042 819.492 135.524C829.053 137.914 839.028 141.408 849.417 146.005L835.627 179.238C826.341 175.469 818.022 172.573 810.667 170.551C803.312 168.436 795.82 167.379 788.189 167.379C782.857 167.379 778.306 168.252 774.537 169.999C770.768 171.654 767.918 174.044 765.987 177.17C764.057 180.204 763.092 183.743 763.092 187.788C763.092 192.569 764.471 196.614 767.229 199.923C770.078 203.141 774.307 206.267 779.915 209.3C785.615 212.334 792.694 215.874 801.152 219.919C811.448 224.791 820.228 229.893 827.491 235.225C834.845 240.466 840.499 246.671 844.452 253.842C848.405 260.921 850.382 269.746 850.382 280.319Z" fill="#1C8B7F"/>
<path d="M636.914 167.379C628.732 167.379 621.469 168.988 615.126 172.205C608.874 175.331 603.588 179.882 599.267 185.857C595.038 191.833 591.821 199.05 589.614 207.508C587.408 215.965 586.305 225.481 586.305 236.053C586.305 250.302 588.051 262.484 591.545 272.596C595.13 282.617 600.646 290.293 608.093 295.625C615.539 300.866 625.146 303.486 636.914 303.486C645.096 303.486 653.278 302.566 661.46 300.728C669.734 298.889 678.697 296.269 688.35 292.867V328.721C679.433 332.399 670.653 335.019 662.011 336.581C653.37 338.236 643.671 339.064 632.915 339.064C612.138 339.064 595.038 334.789 581.616 326.239C568.286 317.597 558.403 305.554 551.968 290.109C545.532 274.573 542.315 256.462 542.315 235.777C542.315 220.516 544.383 206.542 548.52 193.856C552.657 181.169 558.725 170.183 566.723 160.898C574.721 151.612 584.604 144.442 596.371 139.385C608.139 134.329 621.653 131.801 636.914 131.801C646.935 131.801 656.955 133.088 666.976 135.662C677.089 138.144 686.741 141.592 695.935 146.005L682.145 180.755C674.606 177.17 667.022 174.044 659.391 171.378C651.761 168.712 644.268 167.379 636.914 167.379Z" fill="#1C8B7F"/>
</svg>
